<?xml version="1.0" encoding="utf-8"?>
<!-- Generator: Adobe Illustrator 24.0.2, SVG Export Plug-In . SVG Version: 6.00 Build 0)  -->
<svg version="1.1" id="Arte" xmlns="http://www.w3.org/2000/svg" xmlns:xlink="http://www.w3.org/1999/xlink" x="0px" y="0px"
	 viewBox="0 0 203.7 14.4" style="enable-background:new 0 0 203.7 14.4;" xml:space="preserve">
<style type="text/css">
	.st0{fill:#0000A6;}
	.st1{fill:#FFFFFF;}
	.st2{fill:#3873FF;}
	.st3{fill:#FF94B2;}
	.st4{fill:#ED4526;}
	.st5{fill:none;stroke:#3873FF;stroke-width:11.1916;stroke-linecap:round;stroke-miterlimit:10;}
</style>
<circle class="st1" cx="2.2" cy="7.2" r="1"/>
<circle class="st1" cx="5.9" cy="7.2" r="1"/>
<circle class="st1" cx="5.9" cy="7.2" r="1"/>
<circle class="st1" cx="9.6" cy="7.2" r="1"/>
<circle class="st1" cx="9.6" cy="7.2" r="1"/>
<circle class="st1" cx="13.3" cy="7.2" r="1"/>
<circle class="st1" cx="13.3" cy="7.2" r="1"/>
<circle class="st1" cx="17" cy="7.2" r="1"/>
<circle class="st1" cx="17" cy="7.2" r="1"/>
<circle class="st1" cx="20.7" cy="7.2" r="1"/>
<circle class="st1" cx="20.7" cy="7.2" r="1"/>
<circle class="st1" cx="24.4" cy="7.2" r="1"/>
<circle class="st1" cx="24.4" cy="7.2" r="1"/>
<circle class="st1" cx="28.1" cy="7.2" r="1"/>
<circle class="st1" cx="28.1" cy="7.2" r="1"/>
<circle class="st1" cx="31.8" cy="7.2" r="1"/>
<circle class="st1" cx="31.8" cy="7.2" r="1"/>
<circle class="st1" cx="35.5" cy="7.2" r="1"/>
<circle class="st1" cx="35.5" cy="7.2" r="1"/>
<circle class="st1" cx="39.2" cy="7.2" r="1"/>
<circle class="st1" cx="39.2" cy="7.2" r="1"/>
<circle class="st1" cx="42.9" cy="7.2" r="1"/>
<circle class="st1" cx="42.9" cy="7.2" r="1"/>
<circle class="st1" cx="46.6" cy="7.2" r="1"/>
<circle class="st1" cx="46.6" cy="7.2" r="1"/>
<circle class="st1" cx="50.3" cy="7.2" r="1"/>
<circle class="st1" cx="50.3" cy="7.2" r="1"/>
<circle class="st1" cx="54" cy="7.2" r="1"/>
<circle class="st1" cx="54" cy="7.2" r="1"/>
<circle class="st1" cx="57.7" cy="7.2" r="1"/>
<circle class="st1" cx="57.7" cy="7.2" r="1"/>
<circle class="st1" cx="61.4" cy="7.2" r="1"/>
<circle class="st1" cx="61.4" cy="7.2" r="1"/>
<circle class="st1" cx="65.1" cy="7.2" r="1"/>
<circle class="st1" cx="65.1" cy="7.2" r="1"/>
<circle class="st1" cx="68.8" cy="7.2" r="1"/>
<circle class="st1" cx="68.8" cy="7.2" r="1"/>
<circle class="st1" cx="72.6" cy="7.2" r="1"/>
<circle class="st1" cx="72.6" cy="7.2" r="1"/>
<circle class="st1" cx="76.3" cy="7.2" r="1"/>
<circle class="st1" cx="76.3" cy="7.2" r="1"/>
<circle class="st1" cx="80" cy="7.2" r="1"/>
<circle class="st1" cx="80" cy="7.2" r="1"/>
<circle class="st1" cx="83.7" cy="7.2" r="1"/>
<circle class="st1" cx="83.7" cy="7.2" r="1"/>
<circle class="st1" cx="87.4" cy="7.2" r="1"/>
<circle class="st1" cx="87.4" cy="7.2" r="1"/>
<circle class="st1" cx="91.1" cy="7.2" r="1"/>
<circle class="st1" cx="91.1" cy="7.2" r="1"/>
<circle class="st1" cx="94.8" cy="7.2" r="1"/>
<circle class="st1" cx="94.8" cy="7.2" r="1"/>
<circle class="st1" cx="98.5" cy="7.2" r="1"/>
<circle class="st1" cx="98.5" cy="7.2" r="1"/>
<circle class="st1" cx="102.2" cy="7.2" r="1"/>
<circle class="st1" cx="102.2" cy="7.2" r="1"/>
<circle class="st1" cx="105.9" cy="7.2" r="1"/>
<circle class="st1" cx="105.9" cy="7.2" r="1"/>
<circle class="st1" cx="109.6" cy="7.2" r="1"/>
<circle class="st1" cx="109.6" cy="7.2" r="1"/>
<circle class="st1" cx="113.3" cy="7.2" r="1"/>
<circle class="st1" cx="113.3" cy="7.2" r="1"/>
<circle class="st1" cx="117" cy="7.2" r="1"/>
<circle class="st1" cx="117" cy="7.2" r="1"/>
<circle class="st1" cx="120.7" cy="7.2" r="1"/>
<circle class="st1" cx="120.7" cy="7.2" r="1"/>
<circle class="st1" cx="124.4" cy="7.2" r="1"/>
<circle class="st1" cx="124.4" cy="7.2" r="1"/>
<circle class="st1" cx="128.1" cy="7.2" r="1"/>
<circle class="st1" cx="128.1" cy="7.2" r="1"/>
<circle class="st1" cx="131.8" cy="7.2" r="1"/>
<circle class="st1" cx="131.8" cy="7.2" r="1"/>
<circle class="st1" cx="135.5" cy="7.2" r="1"/>
<circle class="st1" cx="135.5" cy="7.2" r="1"/>
<circle class="st1" cx="139.2" cy="7.2" r="1"/>
<circle class="st1" cx="139.2" cy="7.2" r="1"/>
<circle class="st1" cx="142.9" cy="7.2" r="1"/>
<circle class="st1" cx="142.9" cy="7.2" r="1"/>
<circle class="st1" cx="146.7" cy="7.2" r="1"/>
<circle class="st1" cx="146.7" cy="7.2" r="1"/>
<circle class="st1" cx="150.4" cy="7.2" r="1"/>
<circle class="st1" cx="150.4" cy="7.2" r="1"/>
<circle class="st1" cx="154.1" cy="7.2" r="1"/>
<circle class="st1" cx="154.1" cy="7.2" r="1"/>
<circle class="st1" cx="157.8" cy="7.2" r="1"/>
<circle class="st1" cx="157.8" cy="7.2" r="1"/>
<circle class="st1" cx="161.5" cy="7.2" r="1"/>
<circle class="st1" cx="161.5" cy="7.2" r="1"/>
<circle class="st1" cx="165.2" cy="7.2" r="1"/>
<circle class="st1" cx="165.2" cy="7.2" r="1"/>
<circle class="st1" cx="168.9" cy="7.2" r="1"/>
<circle class="st1" cx="168.9" cy="7.2" r="1"/>
<circle class="st1" cx="172.6" cy="7.2" r="1"/>
<circle class="st1" cx="172.6" cy="7.2" r="1"/>
<circle class="st1" cx="176.3" cy="7.2" r="1"/>
<circle class="st1" cx="176.3" cy="7.2" r="1"/>
<circle class="st1" cx="180" cy="7.2" r="1"/>
<circle class="st1" cx="180" cy="7.2" r="1"/>
<circle class="st1" cx="183.7" cy="7.2" r="1"/>
<circle class="st1" cx="183.7" cy="7.2" r="1"/>
<circle class="st1" cx="187.4" cy="7.2" r="1"/>
<circle class="st1" cx="187.4" cy="7.2" r="1"/>
<circle class="st1" cx="191.1" cy="7.2" r="1"/>
<circle class="st1" cx="191.1" cy="7.2" r="1"/>
<circle class="st1" cx="194.8" cy="7.2" r="1"/>
<g>
	<path class="st1" d="M194.4,13.2c-0.2,0-0.3-0.1-0.5-0.2c-0.2-0.3-0.2-0.6,0.1-0.8l6.2-4.9l-6.2-4.9c-0.3-0.2-0.3-0.6-0.1-0.8
		c0.2-0.3,0.6-0.3,0.8-0.1l6.8,5.4c0.1,0.1,0.2,0.3,0.2,0.5c0,0.2-0.1,0.3-0.2,0.5l-6.8,5.4C194.7,13.1,194.5,13.2,194.4,13.2z"/>
</g>
</svg>
