<?xml version="1.0" encoding="utf-8"?>
<!-- Generator: Adobe Illustrator 24.0.2, SVG Export Plug-In . SVG Version: 6.00 Build 0)  -->
<svg version="1.1" id="Arte" xmlns="http://www.w3.org/2000/svg" xmlns:xlink="http://www.w3.org/1999/xlink" x="0px" y="0px"
	 viewBox="0 0 413.2 375.8" style="enable-background:new 0 0 413.2 375.8;" xml:space="preserve">
<style type="text/css">
	.st0{fill:#0000A6;}
	.st1{fill:#FFFFFF;}
	.st2{fill:#3873FF;}
	.st3{fill:#FF94B2;}
	.st4{fill:#ED4526;}
	.st5{fill:none;stroke:#3873FF;stroke-width:11.1916;stroke-linecap:round;stroke-miterlimit:10;}
</style>
<g id="Vocabulario_1_">
	<path class="st1" d="M24.1,104h362.4v0c0,99.8-80.9,180.8-180.8,180.8h-0.9C105,284.8,24.1,203.8,24.1,104L24.1,104z"/>
	<g>
		<path class="st2" d="M91.8,190.8v0.6c18.6,1.9,30.1,19,30.1,45.1c0,31.9-14.4,49-41.8,49H57.6V101.7h19.1
			c27.4,0,41.1,15.7,41.1,46.5C117.7,172.1,108.2,187.5,91.8,190.8z M70.5,114.3v70.7h5.1c20.8,0,29.3-10.2,29.3-35.5
			c0-26.1-7.6-35.2-28.8-35.2H70.5z M70.5,197.7v74.9h6.8c23.2,0,32-10.2,32-37.4c0-26.1-9.8-37.4-32-37.4H70.5z"/>
		<path class="st2" d="M139,285.5V101.7h13.4v170.6H190v13.2H139z"/>
		<path class="st2" d="M271.4,285.5h-13.2l-8.6-58.1h-32l-8.6,58.1h-12.7l28.8-183.9h17.3L271.4,285.5z M234,122.3h-0.7l-13.7,93
			h28.1L234,122.3z"/>
		<path class="st2" d="M299,199.1v86.4h-13.4V101.7H299v84.2h41.8v-84.2h13.4v183.9h-13.4v-86.4H299z"/>
	</g>
	<path class="st4" d="M399.9,104L290,20.2c-18.7-14.3-44.8-13.4-62.5,2.1l-22.2,19.5L183,22.3c-17.7-15.5-43.8-16.4-62.5-2.1
		L10.7,104h123.5h0c12,0,23.9,3.3,34.2,9.4l2.6,1.5c21.2,12.6,47.5,12.6,68.6-0.1l2.1-1.3c10.4-6.3,22.3-9.6,34.4-9.6h0.3H399.9z"/>
	<path class="st4" d="M386.5,104L386.5,104c0,99.8-80.9,180.8-180.8,180.8h-0.9C105,284.8,24.1,203.8,24.1,104v0H10.7v71.7
		c0,107.5,87.1,194.6,194.6,194.6h0c107.5,0,194.6-87.1,194.6-194.6V104H386.5z"/>
</g>
</svg>
