<svg xmlns="http://www.w3.org/2000/svg" viewBox="0 0 171.3 184.26"><path d="M74,106.75c.89,0,1.78,0,2.67,0a2.3,2.3,0,0,1,.2-.42,6.5,6.5,0,0,0,.3-1.52c.15-1.09.3-2.19.44-3.28.29-2.19.58-4.39.84-6.58.54-4.57,1-9.16,1.33-13.75.06-1.07.07-2.14.12-3.21a12.91,12.91,0,0,1-8.17-.15,30,30,0,0,1-7.63-4.1c.4,1.82.82,3.63,1.19,5.45.93,4.56,1.87,9.11,2.66,13.7q.6,3.45,1.12,6.92c.18,1.17.36,2.34.53,3.52a8.36,8.36,0,0,1,.18,3.26C71.16,106.66,72.57,106.73,74,106.75Z" style="fill:#33a0a7"/><path d="M73.91,55.11a7.52,7.52,0,0,0,3.74,0A9.42,9.42,0,0,0,82,51.41,23.23,23.23,0,0,0,86,41.25a24.61,24.61,0,0,0-1.34-11.59c-1.3-3.8-2.77-7.56-4.21-11.32-4.24,4.79-8.45,9.92-10.5,16a24.34,24.34,0,0,0-.83,11.8C69.67,49.67,70.78,53.3,73.91,55.11Z" style="fill:#33a0a7"/><path d="M79.25,107A63,63,0,0,0,93,104.29q3.57-11.39,7.15-22.78c2-6.52,4.34-13,6.13-19.64-.42,0-1,.1-1.43.1a15.38,15.38,0,0,1-2.54-.23,13.94,13.94,0,0,1-4.37-1.56,23.34,23.34,0,0,1-3.8-2.66,22.8,22.8,0,0,1-2.43-2.29c-.82,1.46-1.59,3-2.33,4.43a88.47,88.47,0,0,0-3.83,8.83c-.57,1.55-1.1,3.12-1.61,4.69a16.51,16.51,0,0,1-1.77,4.34s-.07,0-.1.08c-.1,4.6-.4,9.21-.84,13.78-.39,4-.92,8-1.45,12A29.8,29.8,0,0,1,79.25,107Z" style="fill:#9977ae"/><path d="M99.31,59a12.41,12.41,0,0,0,4.41,1,22.39,22.39,0,0,0,2.46-.11,2.28,2.28,0,0,1,.64.06,13.63,13.63,0,0,0-.13-7.52,7.64,7.64,0,0,0-5.12-5c-3.3-.71-6,2-7.71,4.42-.56.78-1.09,1.59-1.59,2.42,1.07.75,2.08,1.61,3.12,2.4A19.09,19.09,0,0,0,99.31,59Z" style="fill:#f7db4a"/><path d="M106.89,77.92c-.13,1-.31,1.92-.52,2.86a5.31,5.31,0,0,0-.31,1.34c.06.43.15.29.51-.07,1.17-1.13,1.67-3.14,2-4.67a59.06,59.06,0,0,0,1.49-11.62,23.2,23.2,0,0,0-.54-5.93c-.14-.6-.29-1.18-.47-1.76-.07.66-.16,1.32-.29,2a69.55,69.55,0,0,1-2.31,8.14,2.1,2.1,0,0,0,.15.3,2.89,2.89,0,0,1,.5.85,11.53,11.53,0,0,1,.21,3A42.31,42.31,0,0,1,106.89,77.92Z" style="fill:#f7db4a"/><path d="M71.8,76.13a10.22,10.22,0,0,0,7.87-.23c.06-2.56,0-5.12-.08-7.67-.11-2.11-.29-4.21-.5-6.3-.19-1.86-.52-3.72-.67-5.58a7,7,0,0,1-7.86-1.88c-.49.85-1,1.68-1.52,2.51-.75,1.32-1.46,2.68-2.13,4.05a59.52,59.52,0,0,0-3.13,7.73c-.11.33-.21.73-.35,1.1.13.59.25,1.18.38,1.77C66.47,73.18,68.84,75.14,71.8,76.13Z" style="fill:#f7db4a"/><path d="M53.61,62.38l.24.8c.31,1.05.59,2.1.88,3.16q.8,2.93,1.57,5.85c1,3.92,1.78,7.89,2.81,11.79s1.83,8,2.66,12.08c.41,2,.8,4,1.19,5.94.21,1.08.42,2.15.62,3.23,0,.22.08.43.11.62,1.22.22,2.45.41,3.68.56a12.23,12.23,0,0,1-.45-2.44c-.18-1.19-.36-2.39-.55-3.58-.36-2.33-.75-4.65-1.14-7-.75-4.48-1.49-9-2.36-13.44s-1.81-8.9-2.77-13.35c-.49-2.3-1-4.6-1.53-6.9-.12-.51-.26-1-.4-1.57A12.2,12.2,0,0,1,53.61,62.38Z" style="fill:#c73b3c"/><path d="M100.25,103.46a61.38,61.38,0,0,1-5.87,2.13A66.33,66.33,0,0,1,69,108.27,63.48,63.48,0,0,1,56.72,106a41.27,41.27,0,0,1-6-2.31c-.87-.4-1.75-.81-2.61-1.26,2.26,12.09,4.07,24.26,6,36.42q.68,4.32,1.37,8.64c.45,2.86.73,5.79,1.42,8.61s2.6,4,4.91,5.3a36.6,36.6,0,0,0,6.53,2.8,39.27,39.27,0,0,0,14.45,1.73,35.72,35.72,0,0,0,7-1.15c2.45-.65,5.06-1.48,6.83-3.39a13.33,13.33,0,0,0,2.83-6.17c.62-2.54,1-5.13,1.52-7.71q1.5-8.37,2.59-16.83t1.73-17c.32-4.3.68-8.67.59-13a12.39,12.39,0,0,1-2.6,1.42C102.26,102.58,101.26,103,100.25,103.46Z" style="fill:#f7db4a"/><path d="M53.9,103H54c-.11-.56-.19-1.1-.3-1.55q-.65-2.67-1.32-5.34Q51.05,91,49.69,86T46.82,75.59q-.72-2.52-1.46-5a32.05,32.05,0,0,1-1.11-3.84,5.29,5.29,0,0,1-.79-.45l-1-.64c-.67-.41-1.35-.81-2.05-1.18s-1.46-.72-2.2-1L38,63.34a27.6,27.6,0,0,0,.6,2.78q1.52,6.13,3.29,12.2c1.15,4,2.42,7.89,3.7,11.82,1.14,3.5,2.4,7,3.26,10.57C50.56,101,52.43,102.57,53.9,103Z" style="fill:#c73b3c"/><path d="M114.75,30.25c-.23.08-.43.62-.53.8-.46.79-.9,1.58-1.35,2.37-.86,1.51-1.72,3-2.6,4.52a57.14,57.14,0,0,1-4.84,7.63,5.41,5.41,0,0,1-.68,1.36c2.8,1.85,4.1,5,4.39,8.37A10.78,10.78,0,0,1,111.53,60a22.46,22.46,0,0,1,.62,7c-.1,2.22-.43,4.43-.74,6.64A25.89,25.89,0,0,1,110,79.7c-.62,1.56-1.56,3.41-3.36,3.83s-2.74-1.1-2.56-2.65c.13-1.13.5-2.25.68-3.38a27.56,27.56,0,0,0,.37-3.73c0-.25,0-.51,0-.76q-1.45,4.59-2.89,9.19l-6.32,20.15c.64-.24,1.29-.45,1.92-.71,1.13-.47,5-3.74,7.57-4.6h0a44.06,44.06,0,0,1,2.25-5c1.08-2.34,2.17-4.68,3.25-7q11-23.79,22.07-47.55a126.82,126.82,0,0,0-17.18-6.91A3.8,3.8,0,0,0,114.75,30.25Zm-7.26,58.52a1.12,1.12,0,0,1-.29.52,1.14,1.14,0,0,1-.52.33,1.34,1.34,0,0,1-.69,0l-.16-.06-.27-.1c-.26-.1-.54-.18-.79-.3l-.51-.26a5.23,5.23,0,0,1-.68-.48.9.9,0,0,1-.29-.57.87.87,0,0,1,.06-.5,1,1,0,0,1,.38-.48l.24-.1.26,0a4.47,4.47,0,0,1,.82.08l.56.14c.19.06.37.14.56.21l.27.11a1.47,1.47,0,0,1,.71.37,1.14,1.14,0,0,1,.32.52A1.15,1.15,0,0,1,107.49,88.77Zm14.7-45.37a1,1,0,0,1,.38-.48l.24-.1.26,0a4.48,4.48,0,0,1,.82.09l.56.14c.19.06.37.14.56.21l.27.1a1.58,1.58,0,0,1,.71.38,1.14,1.14,0,0,1,.32.52,1.15,1.15,0,0,1,0,.61,1.25,1.25,0,0,1-.28.52,1.12,1.12,0,0,1-.53.32,1.25,1.25,0,0,1-.69,0l-.16-.06-.27-.1c-.26-.1-.53-.18-.79-.3L123.1,45a5.23,5.23,0,0,1-.68-.48.9.9,0,0,1-.29-.57A1,1,0,0,1,122.19,43.4ZM116.88,64l.28.1a1.49,1.49,0,0,1,.71.38,1.12,1.12,0,0,1,.32.52,1.15,1.15,0,0,1,0,.61,1.2,1.2,0,0,1-.28.52,1.23,1.23,0,0,1-.52.32,1.28,1.28,0,0,1-.7,0l-.15,0-.27-.11a7.54,7.54,0,0,1-.79-.3l-.52-.25a4.6,4.6,0,0,1-.67-.49.88.88,0,0,1-.29-.56.94.94,0,0,1,0-.5,1,1,0,0,1,.39-.48l.24-.11.26,0a5.42,5.42,0,0,1,.81.08c.19,0,.38.09.56.15A5.37,5.37,0,0,1,116.88,64Z" style="fill:#df9c42"/><path d="M41.1,63.29c.76.36,1.51.75,2.24,1.18.37.22.73.45,1.08.68a5.2,5.2,0,0,1,.77-.41c.8-.36,1.61-.69,2.42-1,1.4-.55,2.81-1.09,4.16-1.77,2.62-1.32,4.9-3.25,5.73-6.16a15.62,15.62,0,0,0-2.91-2.89l-4.1-3.42-1.21-1a7.64,7.64,0,0,1-6.52,3,6.79,6.79,0,0,1-1.49-.22L41,51.12C40.5,52.56,40,54,39.45,55.45A37.47,37.47,0,0,0,37.67,61a5.69,5.69,0,0,0-.08.82c.37.13.73.28,1.07.41C39.48,62.56,40.3,62.91,41.1,63.29Z" style="fill:#f7e2a0"/><path d="M45,49a6.54,6.54,0,0,0,2.58-2l-3.86-3.21c-.69,1.83-1.37,3.67-2,5.5a7.83,7.83,0,0,0,1.16.11A5.91,5.91,0,0,0,45,49Z" style="fill:#c73b3c"/><path d="M59.73,95.84C58.91,91.9,58,88,57.25,84s-1.9-8-2.82-12q-.69-3-1.39-5.89c-.2-.85-.6-1.91-.79-2.94-1.22.55-2.47,1-3.73,1.51-.84.31-1.69.63-2.55.9l-.31.09A24.09,24.09,0,0,1,47,69.8c.53,1.78,1.06,3.57,1.58,5.35,1,3.49,2,7,2.94,10.49s1.86,7,2.75,10.55c.45,1.8.9,3.61,1.33,5.42.17.7.47,1.52.63,2.33,1.47.42,3,.81,4.44,1.16.29.06.6.11.9.18a2.87,2.87,0,0,1-.05-.31l-.63-3.21C60.53,99.79,60.14,97.81,59.73,95.84Z" style="fill:#ce6163"/><path d="M135.24,36c-3.34-1.65-6.74-3.17-10.21-4.53q-2.59-1-5.24-1.94a20.1,20.1,0,0,0-4.92-1.5c-1.68-.1-2.53,1.1-3.27,2.41-1,1.71-1.95,3.42-2.91,5.15-1.91,3.46-4.16,6.94-5.23,10.77a.49.49,0,0,0,0,.27c-.21-.1-.4-.21-.62-.29C96.31,43.93,92,51.27,89.37,56a86.3,86.3,0,0,0-4.89,10.45c-.68,1.75-1.32,3.52-1.86,5.32-.06.18-.12.37-.17.55,0-1.53-.08-3-.18-4.57-.27-4.07-.61-8.54-2.07-12.38.3-.21.6-.39.9-.64,3.15-2.59,5.22-6.71,6.27-10.58A24.55,24.55,0,0,0,87.58,32c-1.2-5-3.2-9.95-4.84-14.86a1.31,1.31,0,0,0-2.17-.61c-5.23,5.4-10.73,11.23-13,18.59a26.56,26.56,0,0,0-.43,12.47,13.72,13.72,0,0,0,2,5.09,24.12,24.12,0,0,0-1.75,2.64C66.67,56.52,66,57.74,65.31,59a62.58,62.58,0,0,0-2.91,6.67c-.49-2-1-4-1.52-6s-.91-4.46-1.94-6.32a.73.73,0,0,0-.52-.37,3.47,3.47,0,0,0-.32-.34c-1.4-1.37-3.05-2.56-4.56-3.81q-4.66-3.86-9.32-7.72a1.39,1.39,0,0,0-2.26.67q-2.22,5.91-4.35,11.86c-1.3,3.64-2.8,7.08-2.06,11,.77,4.1,2,8.16,3.16,12.16Q40.48,83,42.52,89.2a81.11,81.11,0,0,0,4.63,11.74c-1.42,1.22.06,4.83.33,7.17,1.09,9.7,2.54,19.35,4,29,.93,6,1.8,12,2.87,17.93a9.65,9.65,0,0,0,3.7,6.35A28.74,28.74,0,0,0,64.67,165c9,3.69,20.08,4.43,29.17.57a12.33,12.33,0,0,0,5.94-5A21.23,21.23,0,0,0,102.1,154c1.21-5.62,2.16-11.32,3-17q1.39-9.6,2.21-19.27c.53-6.26,1.09-12.58.4-18.85A28.93,28.93,0,0,0,110.11,94l2.78-6.09q2.77-6.09,5.56-12.18,5.51-12.06,11-24.12l6.32-13.74A1.41,1.41,0,0,0,135.24,36ZM93.86,51.9c1.75-2.44,4.41-5.13,7.71-4.42a7.64,7.64,0,0,1,5.12,5,13.63,13.63,0,0,1,.13,7.52,2.28,2.28,0,0,0-.64-.06,22.39,22.39,0,0,1-2.46.11,12.41,12.41,0,0,1-4.41-1,19.09,19.09,0,0,1-3.92-2.32c-1-.79-2-1.65-3.12-2.4C92.77,53.49,93.3,52.68,93.86,51.9Zm13.28,17.41a2.89,2.89,0,0,0-.5-.85,2.1,2.1,0,0,1-.15-.3A69.55,69.55,0,0,0,108.8,60c.13-.63.22-1.29.29-2,.18.58.33,1.16.47,1.76a23.2,23.2,0,0,1,.54,5.93,59.06,59.06,0,0,1-1.49,11.62c-.37,1.53-.87,3.54-2,4.67-.36.36-.45.5-.51.07a5.31,5.31,0,0,1,.31-1.34c.21-.94.39-1.9.52-2.86a42.31,42.31,0,0,0,.46-5.62A11.53,11.53,0,0,0,107.14,69.31ZM81.19,91.38c.44-4.57.74-9.18.84-13.78,0,0,.07,0,.1-.08a16.51,16.51,0,0,0,1.77-4.34c.51-1.57,1-3.14,1.61-4.69a88.47,88.47,0,0,1,3.83-8.83c.74-1.48,1.51-3,2.33-4.43a22.8,22.8,0,0,0,2.43,2.29,23.34,23.34,0,0,0,3.8,2.66,13.94,13.94,0,0,0,4.37,1.56,15.38,15.38,0,0,0,2.54.23c.46,0,1-.08,1.43-.1-1.79,6.61-4.08,13.12-6.13,19.64Q96.54,92.91,93,104.29A63,63,0,0,1,79.25,107a29.8,29.8,0,0,0,.49-3.6C80.27,99.4,80.8,95.4,81.19,91.38ZM69.58,103.29c-.17-1.18-.35-2.35-.53-3.52q-.52-3.47-1.12-6.92c-.79-4.59-1.73-9.14-2.66-13.7-.37-1.82-.79-3.63-1.19-5.45a30,30,0,0,0,7.63,4.1,12.91,12.91,0,0,0,8.17.15c0,1.07-.06,2.14-.12,3.21-.28,4.59-.79,9.18-1.33,13.75-.26,2.19-.55,4.39-.84,6.58-.14,1.09-.29,2.19-.44,3.28a6.5,6.5,0,0,1-.3,1.52,2.3,2.3,0,0,0-.2.42c-.89,0-1.78.05-2.67,0-1.41,0-2.82-.09-4.22-.2A8.36,8.36,0,0,0,69.58,103.29Zm-.47-57.13a24.34,24.34,0,0,1,.83-11.8c2-6.1,6.26-11.23,10.5-16,1.44,3.76,2.91,7.52,4.21,11.32A24.61,24.61,0,0,1,86,41.25,23.23,23.23,0,0,1,82,51.41a9.42,9.42,0,0,1-4.39,3.7,7.52,7.52,0,0,1-3.74,0C70.78,53.3,69.67,49.67,69.11,46.16Zm-5.33,22.6A59.52,59.52,0,0,1,66.91,61C67.58,59.66,68.29,58.3,69,57c.47-.83,1-1.66,1.52-2.51a7,7,0,0,0,7.86,1.88c.15,1.86.48,3.72.67,5.58.21,2.09.39,4.19.5,6.3.13,2.55.14,5.11.08,7.67a10.22,10.22,0,0,1-7.87.23c-3-1-5.33-2.95-8-4.5-.13-.59-.25-1.18-.38-1.77C63.57,69.49,63.67,69.09,63.78,68.76Zm-5.61-10.6c.14.53.28,1.06.4,1.57.52,2.3,1,4.6,1.53,6.9,1,4.45,1.9,8.89,2.77,13.35s1.61,9,2.36,13.44c.39,2.32.78,4.64,1.14,7,.19,1.19.37,2.39.55,3.58a12.23,12.23,0,0,0,.45,2.44c-1.23-.15-2.46-.34-3.68-.56,0-.19-.07-.4-.11-.62-.2-1.08-.41-2.15-.62-3.23-.39-2-.78-4-1.19-5.94C60.94,92,60.15,88,59.11,84s-1.78-7.87-2.81-11.79q-.78-2.93-1.57-5.85c-.29-1.06-.57-2.11-.88-3.16l-.24-.8A12.2,12.2,0,0,0,58.17,58.16Zm3.43,47.12c-.3-.07-.61-.12-.9-.18-1.49-.35-3-.74-4.44-1.16-.16-.81-.46-1.63-.63-2.33-.43-1.81-.88-3.62-1.33-5.42Q53,90.91,51.55,85.64c-.94-3.5-1.93-7-2.94-10.49-.52-1.78-1-3.57-1.58-5.35a24.09,24.09,0,0,0-1.37-4.13l.31-.09c.86-.27,1.71-.59,2.55-.9,1.26-.46,2.51-1,3.73-1.51.19,1,.59,2.09.79,2.94Q53.75,69,54.43,72c.92,4,2.11,8,2.82,12s1.66,7.9,2.48,11.84c.41,2,.8,4,1.19,5.92l.63,3.21A2.87,2.87,0,0,0,61.6,105.28ZM37.67,61a37.47,37.47,0,0,1,1.78-5.56C40,54,40.5,52.56,41,51.12a1.72,1.72,0,0,1-1-.75.65.65,0,0,1,.38-.94,2.57,2.57,0,0,1,1.24-.08c.67-1.83,1.35-3.67,2-5.5l3.86,3.21c.1-.14.22-.27.32-.42a1.11,1.11,0,0,1,1.91,1.12c-.16.25-.34.49-.52.72l1.21,1,4.1,3.42A15.62,15.62,0,0,1,57.5,55.8c-.83,2.91-3.11,4.84-5.73,6.16-1.35.68-2.76,1.22-4.16,1.77-.81.32-1.62.65-2.42,1a5.2,5.2,0,0,0-.77.41c-.35-.23-.71-.46-1.08-.68-.73-.43-1.48-.82-2.24-1.18s-1.62-.73-2.44-1c-.34-.13-.7-.28-1.07-.41A5.69,5.69,0,0,1,37.67,61Zm8,29.13c-1.28-3.93-2.55-7.86-3.7-11.82s-2.28-8.11-3.29-12.2a27.6,27.6,0,0,1-.6-2.78l.17.07c.74.31,1.48.66,2.2,1s1.38.77,2.05,1.18l1,.64a5.29,5.29,0,0,0,.79.45,32.05,32.05,0,0,0,1.11,3.84q.73,2.52,1.46,5Q48.29,80.77,49.69,86t2.64,10.16q.68,2.67,1.32,5.34c.11.45.19,1,.3,1.55H53.9c-1.47-.43-3.34-2-5-2.29C48,97.13,46.77,93.64,45.63,90.14Zm59.63,23.55q-.65,8.52-1.73,17t-2.59,16.83c-.47,2.58-.9,5.17-1.52,7.71a13.33,13.33,0,0,1-2.83,6.17c-1.77,1.91-4.38,2.74-6.83,3.39a35.72,35.72,0,0,1-7,1.15,39.27,39.27,0,0,1-14.45-1.73,36.6,36.6,0,0,1-6.53-2.8c-2.31-1.27-4.25-2.61-4.91-5.3s-1-5.75-1.42-8.61-.92-5.76-1.37-8.64c-1.91-12.16-3.72-24.33-6-36.42.86.45,1.74.86,2.61,1.26a41.27,41.27,0,0,0,6,2.31A63.48,63.48,0,0,0,69,108.27a66.33,66.33,0,0,0,25.36-2.68,61.38,61.38,0,0,0,5.87-2.13c1-.43,2-.88,3-1.36a12.39,12.39,0,0,0,2.6-1.42C105.94,105,105.58,109.39,105.26,113.69ZM110.92,85c-1.08,2.33-2.17,4.67-3.25,7a44.06,44.06,0,0,0-2.25,5h0c-2.55.86-6.44,4.13-7.57,4.6-.63.26-1.28.47-1.92.71l6.32-20.15q1.44-4.59,2.89-9.19c0,.25,0,.51,0,.76a27.56,27.56,0,0,1-.37,3.73c-.18,1.13-.55,2.25-.68,3.38-.18,1.55.88,3,2.56,2.65s2.74-2.27,3.36-3.83a25.89,25.89,0,0,0,1.42-6.07c.31-2.21.64-4.42.74-6.64a22.46,22.46,0,0,0-.62-7,10.78,10.78,0,0,0-2.39-4.71c-.29-3.34-1.59-6.52-4.39-8.37a5.41,5.41,0,0,0,.68-1.36,57.14,57.14,0,0,0,4.84-7.63c.88-1.5,1.74-3,2.6-4.52.45-.79.89-1.58,1.35-2.37.1-.18.3-.72.53-.8a3.8,3.8,0,0,1,1.06.3A126.82,126.82,0,0,1,133,37.46Q122,61.24,110.92,85Z" style="fill:#27414b"/><path d="M107.15,87.64a1.47,1.47,0,0,0-.71-.37l-.27-.11c-.19-.07-.37-.15-.56-.21l-.56-.14a4.47,4.47,0,0,0-.82-.08l-.26,0-.24.1a1,1,0,0,0-.38.48.87.87,0,0,0-.06.5.9.9,0,0,0,.29.57,5.23,5.23,0,0,0,.68.48l.51.26c.25.12.53.2.79.3l.27.1.16.06a1.34,1.34,0,0,0,.69,0,1.14,1.14,0,0,0,.52-.33,1.12,1.12,0,0,0,.29-.52,1.15,1.15,0,0,0,0-.61A1.14,1.14,0,0,0,107.15,87.64Z" style="fill:#27414b"/><path d="M115,63.59l-.26,0-.24.11a1,1,0,0,0-.39.48.94.94,0,0,0,0,.5.88.88,0,0,0,.29.56,4.6,4.6,0,0,0,.67.49l.52.25a7.54,7.54,0,0,0,.79.3l.27.11.15,0a1.28,1.28,0,0,0,.7,0,1.23,1.23,0,0,0,.52-.32,1.2,1.2,0,0,0,.28-.52,1.15,1.15,0,0,0,0-.61,1.12,1.12,0,0,0-.32-.52,1.49,1.49,0,0,0-.71-.38l-.28-.1a5.37,5.37,0,0,0-.56-.21c-.18-.06-.37-.1-.56-.15A5.42,5.42,0,0,0,115,63.59Z" style="fill:#27414b"/><path d="M122.42,44.47a5.23,5.23,0,0,0,.68.48l.51.26c.26.12.53.2.79.3l.27.1.16.06a1.25,1.25,0,0,0,.69,0,1.12,1.12,0,0,0,.53-.32,1.25,1.25,0,0,0,.28-.52,1.15,1.15,0,0,0,0-.61,1.14,1.14,0,0,0-.32-.52,1.58,1.58,0,0,0-.71-.38l-.27-.1c-.19-.07-.37-.15-.56-.21l-.56-.14a4.48,4.48,0,0,0-.82-.09l-.26,0-.24.1a1,1,0,0,0-.38.48,1,1,0,0,0-.06.5A.9.9,0,0,0,122.42,44.47Z" style="fill:#27414b"/><path d="M42.76,51.43a7.64,7.64,0,0,0,6.52-3c.18-.23.36-.47.52-.72a1.11,1.11,0,0,0-1.91-1.12c-.1.15-.22.28-.32.42A6.54,6.54,0,0,1,45,49a5.91,5.91,0,0,1-2.16.44,7.83,7.83,0,0,1-1.16-.11,2.57,2.57,0,0,0-1.24.08.65.65,0,0,0-.38.94,1.72,1.72,0,0,0,1,.75l.25.09A6.79,6.79,0,0,0,42.76,51.43Z" style="fill:#27414b"/><path d="M82.79,165.92a35.72,35.72,0,0,0,7-1.15,26.94,26.94,0,0,0,3.56-1.17,32.76,32.76,0,0,1-11.18-3.87c-5.23-3.13-9-8.15-12.15-13.39a85,85,0,0,1-11.76-39.95c-.5-.13-1-.25-1.51-.4a41.27,41.27,0,0,1-6-2.31c-.87-.4-1.75-.81-2.61-1.26,2.26,12.09,4.07,24.26,6,36.42q.68,4.32,1.37,8.64c.45,2.86.73,5.79,1.42,8.61s2.6,4,4.91,5.3a36.6,36.6,0,0,0,6.53,2.8A39.27,39.27,0,0,0,82.79,165.92Z" style="fill:#ebbd47"/><path d="M102.08,102.63c-2.74,15.87-3.48,32-4.21,48.11a78.09,78.09,0,0,0-.05,8.92,17,17,0,0,0,1.6-4.45c.62-2.54,1-5.13,1.52-7.71q1.5-8.37,2.59-16.83t1.73-17c.32-4.3.68-8.67.59-13a12.39,12.39,0,0,1-2.6,1.42C102.86,102.29,102.47,102.45,102.08,102.63Z" style="fill:#f7df80"/><path d="M54.59,52.91l-4.1-3.42-1.21-1a8.2,8.2,0,0,1-1.78,1.65,16,16,0,0,1,1.69,7.13A43.21,43.21,0,0,1,49,63.17c.92-.37,1.84-.76,2.73-1.21,2.62-1.32,4.9-3.25,5.73-6.16A15.62,15.62,0,0,0,54.59,52.91Z" style="fill:#e9ba73"/><path d="M42.76,51.43a6.79,6.79,0,0,1-1.49-.22L41,51.12C40.5,52.56,40,54,39.45,55.45A37.47,37.47,0,0,0,37.67,61a5.69,5.69,0,0,0-.08.82c.37.13.73.28,1.07.41.57.23,1.15.47,1.71.72.22-.71.42-1.42.61-2.13q1.25-4.66,2.24-9.39Z" style="fill:#fff8c4"/><path d="M80.89,19.51l.3,7.73c.22,5.93.24,12.5-3.67,17-1.43,1.63-3.56,2.9-5.67,2.48a5.33,5.33,0,0,1-2.92-1.84q.07.66.18,1.32c.56,3.51,1.67,7.14,4.8,9a7.52,7.52,0,0,0,3.74,0A9.42,9.42,0,0,0,82,51.41,23.23,23.23,0,0,0,86,41.25a24.61,24.61,0,0,0-1.34-11.59C83.49,26.25,82.19,22.88,80.89,19.51Z" style="fill:#0f7e75"/><path d="M74.49,78.43a53.59,53.59,0,0,1-1.86,9.15c-1.12,3.54-2.83,7-3.83,10.59.08.54.17,1.07.25,1.6.18,1.17.36,2.34.53,3.52a8.36,8.36,0,0,1,.18,3.26c1.4.11,2.81.18,4.22.2.89,0,1.78,0,2.67,0a2.3,2.3,0,0,1,.2-.42,6.5,6.5,0,0,0,.3-1.52c.15-1.09.3-2.19.44-3.28.29-2.19.58-4.39.84-6.58.54-4.57,1-9.16,1.33-13.75.06-1.07.07-2.14.12-3.21A12.15,12.15,0,0,1,74.49,78.43Z" style="fill:#0f7e75"/><path d="M78.81,24.71a1.27,1.27,0,0,0-1.45-.1,6.93,6.93,0,0,0-1.18,1.05,8.93,8.93,0,0,0-1,1.41c-.49.84-1,1.7-1.39,2.57s-.84,1.75-1.22,2.64c-.13.31-.26.61-.38.92a9.35,9.35,0,0,0-.18.92c0-.23,0-.25,0,0a1.61,1.61,0,0,0,0,.58,2.62,2.62,0,0,0,.14.72,1.35,1.35,0,0,0,1.25.95,2.17,2.17,0,0,0,1.77-.94h0l.37-.48a7.12,7.12,0,0,0,.36-.86l.51-1.36c.09-.21.17-.42.26-.62l.2-.47c.39-.89.81-1.77,1.27-2.64a11.18,11.18,0,0,0,1.17-2.87A1.33,1.33,0,0,0,78.81,24.71Z" style="fill:#75b8c2"/><path d="M73.08,38.06a1,1,0,0,0-.3-.73,1.06,1.06,0,0,0-.73-.31,1.07,1.07,0,0,0-.73.31l-.16.21a1,1,0,0,0-.14.52c0,.22,0,.44,0,.66a1.78,1.78,0,0,0,.07.57l0,.15a1.86,1.86,0,0,0,.14.37,1,1,0,0,0,.34.35,1,1,0,0,0,.49.13.92.92,0,0,0,.49-.13,1.06,1.06,0,0,0,.35-.35,1.91,1.91,0,0,0,.13-.36l0-.16a2.12,2.12,0,0,0,.06-.57C73.11,38.5,73.1,38.28,73.08,38.06Z" style="fill:#75b8c2"/><path d="M68.79,79l-.09-.16a1.07,1.07,0,0,0-.94-.56,1.23,1.23,0,0,0-.56.15,3.4,3.4,0,0,0-.27.21,1,1,0,0,0-.22.23A1.9,1.9,0,0,0,66.33,80c0,.14,0,.29,0,.44a.89.89,0,0,0,.11.48,1.42,1.42,0,0,0,.08.18,1,1,0,0,0,.23.29,1.59,1.59,0,0,0,.13.13,1.05,1.05,0,0,0,.71.29,1,1,0,0,0,.72-.29,1.7,1.7,0,0,0,.49-.77l.09-.44A1.9,1.9,0,0,0,68.79,79Z" style="fill:#75b8c2"/><path d="M79.09,61.93c-.19-1.86-.52-3.72-.67-5.58a6.74,6.74,0,0,1-4,.34A74.07,74.07,0,0,1,72.9,76.45a9.8,9.8,0,0,0,6.77-.55c.06-2.56,0-5.12-.08-7.67C79.48,66.12,79.3,64,79.09,61.93Z" style="fill:#e9b746"/><path d="M71.94,59.73a1.45,1.45,0,0,0-.69-1.2,1.38,1.38,0,0,0-1.4,0,2.3,2.3,0,0,0-.88.95l-.37.71-.71,1.39c-.23.47-.45.94-.66,1.42a3.8,3.8,0,0,0-.57,2.42,1.57,1.57,0,0,0,2.29.93,3.27,3.27,0,0,0,1.19-1.78c.24-.56.48-1.12.7-1.68l.29-.69.15-.37,0,0A4.3,4.3,0,0,0,71.94,59.73Z" style="fill:#fff287"/><path d="M68.11,69.6c0-.22,0-.43,0-.65l0-.2a.54.54,0,0,0-.14-.27.38.38,0,0,0-.14-.14.6.6,0,0,0-.26-.14.94.94,0,0,0-.41,0,.85.85,0,0,0-.47.36L66.3,69l-.15.22a1.09,1.09,0,0,0-.15.46l0,.07a.81.81,0,0,0,0,.41.45.45,0,0,0,.07.25.72.72,0,0,0,.21.33l.21.16a1.09,1.09,0,0,0,1.46-.37l.07-.15a1.13,1.13,0,0,0,.16-.64Z" style="fill:#fff287"/><path d="M100,51.84l.07-.09-.16.21Z" style="fill:#fff287"/><path d="M100.14,51.63l0,.06,0,.06Z" style="fill:#fff287"/><path d="M100.3,50.16a1.5,1.5,0,0,0-.47-.61,1.57,1.57,0,0,0-.93-.33,1.86,1.86,0,0,0-.62.05,3,3,0,0,0-.56.24l-.4.24a3.1,3.1,0,0,0-.64.55c-.18.21-.35.43-.51.65a2.92,2.92,0,0,0-.51,1.12,5.62,5.62,0,0,0-.1.7,1.8,1.8,0,0,0,.09.65A.91.91,0,0,0,97,54l.22-.11a1.86,1.86,0,0,0,.28-.21,3.13,3.13,0,0,1,.3-.2,5.71,5.71,0,0,0,.48-.38c.2-.14.41-.26.63-.39l.37-.25.18-.11.1,0a2,2,0,0,0,.56-.56,1.71,1.71,0,0,0,.29-.53A1.57,1.57,0,0,0,100.3,50.16Z" style="fill:#fff287"/><path d="M103.72,60a22.39,22.39,0,0,0,2.46-.11,2.28,2.28,0,0,1,.64.06,13.63,13.63,0,0,0-.13-7.52,8.78,8.78,0,0,0-2.48-3.62,16,16,0,0,1-2.37,7,24.79,24.79,0,0,1-2.42,3.26A12.49,12.49,0,0,0,103.72,60Z" style="fill:#e9b746"/><path d="M102.27,61.74a13.07,13.07,0,0,1-2.92-.87,68,68,0,0,1-12,24.41c-2,2.6-4.22,5.06-6.35,7.57-.37,3.52-.83,7-1.29,10.55a29.8,29.8,0,0,1-.49,3.6A63,63,0,0,0,93,104.29q3.57-11.39,7.15-22.78c2-6.52,4.34-13,6.13-19.64-.42,0-1,.1-1.43.1A15.38,15.38,0,0,1,102.27,61.74Z" style="fill:#7b6089"/><path d="M91.67,55.23c-.82,1.46-1.59,3-2.33,4.43a88.47,88.47,0,0,0-3.83,8.83c-.57,1.55-1.1,3.12-1.61,4.69a16.51,16.51,0,0,1-1.77,4.34s-.07,0-.1.08c0,1.55-.09,3.1-.17,4.65a20.21,20.21,0,0,0,1.61-3.14L93.3,56.82A18.8,18.8,0,0,1,91.67,55.23Z" style="fill:#c19dc5"/><path d="M109.14,55.3a6.49,6.49,0,0,1,.7.84c1.62-4,3.27-8,4.91-11.93a92.52,92.52,0,0,1,5.72-12.07q-2.31-.84-4.66-1.59a3.8,3.8,0,0,0-1.06-.3c-.23.08-.43.62-.53.8-.46.79-.9,1.58-1.35,2.37-.86,1.51-1.72,3-2.6,4.52a57.14,57.14,0,0,1-4.84,7.63,5.41,5.41,0,0,1-.68,1.36C107.55,48.78,108.85,52,109.14,55.3Z" style="fill:#d2723b"/><path d="M133,37.46q-2.36-1.14-4.75-2.19a63.92,63.92,0,0,0-3.08,5.64c-.34.67-.66,1.35-1,2l.28.07c.19.06.37.14.56.21l.27.1a1.58,1.58,0,0,1,.71.38,1.14,1.14,0,0,1,.32.52,1.15,1.15,0,0,1,0,.61,1.25,1.25,0,0,1-.28.52,1.12,1.12,0,0,1-.53.32,1.25,1.25,0,0,1-.69,0l-.16-.06-.27-.1c-.26-.1-.53-.18-.79-.3l-.45-.23c-3.06,6.25-6,12.54-8.86,18.89a.61.61,0,0,1,.15-.13l.24-.11.26,0a5.42,5.42,0,0,1,.81.08c.19,0,.38.09.56.15a5.37,5.37,0,0,1,.56.21l.28.1a1.49,1.49,0,0,1,.71.38,1.12,1.12,0,0,1,.32.52,1.15,1.15,0,0,1,0,.61,1.2,1.2,0,0,1-.28.52,1.23,1.23,0,0,1-.52.32,1.28,1.28,0,0,1-.7,0l-.15,0-.27-.11a7.54,7.54,0,0,1-.79-.3l-.52-.25a4.6,4.6,0,0,1-.67-.49.88.88,0,0,1-.29-.56,1.09,1.09,0,0,1,0-.18q-1,2.31-2,4.62c-.15,1.5-.36,3-.57,4.47A25.89,25.89,0,0,1,110,79.7c-.62,1.56-1.56,3.41-3.36,3.83a2,2,0,0,1-.68,0c-.42,1.06-.85,2.12-1.27,3.17a2.38,2.38,0,0,1,.37.06l.56.14c.19.06.37.14.56.21l.27.11a1.47,1.47,0,0,1,.71.37,1.14,1.14,0,0,1,.32.52,1.15,1.15,0,0,1,0,.61,1.12,1.12,0,0,1-.29.52,1.14,1.14,0,0,1-.52.33,1.34,1.34,0,0,1-.69,0l-.16-.06-.27-.1c-.26-.1-.54-.18-.79-.3l-.51-.26a2.46,2.46,0,0,1-.34-.22c-1.56,4-3.06,8-4.53,12,1.7-1.17,4.19-3,6-3.62h0a44.06,44.06,0,0,1,2.25-5c1.08-2.34,2.17-4.68,3.25-7Q121.95,61.22,133,37.46Z" style="fill:#ecc26c"/></svg>