<svg xmlns="http://www.w3.org/2000/svg" viewBox="0 0 171.3 184.26"><path d="M91.7,149a27.61,27.61,0,0,1-5.86-1.66A7.26,7.26,0,0,1,82,144c-.85-1.75-.42-3.43.42-5.1l0-.08a30.77,30.77,0,0,0-8.84,2.12c-2.76,1.2-6.37,3.19-7,6.43s2.7,4.78,5.07,5.82a42.1,42.1,0,0,0,9.2,2.78,64.3,64.3,0,0,0,19.29.27,59.29,59.29,0,0,0,9.45-1.63c2.59-.75,5.67-2.78,5.06-5.91-.51-2.55-3.09-4.28-5.19-5.46a44.88,44.88,0,0,0-7.85-3.35c0,.16.08.3.11.46a7.72,7.72,0,0,1-.59,5.55,6.91,6.91,0,0,1-3.72,2.87A11.06,11.06,0,0,1,91.7,149Z" style="fill:#ecc05f"/><path d="M109.29,156.43a73.23,73.23,0,0,1-10.93,1.67,60.83,60.83,0,0,1-21.55-1.51,42.31,42.31,0,0,1-5.25-1.82,18.21,18.21,0,0,1-4.19-2.26,6,6,0,0,1-1.74-2.14l-.27,1.22c-.28,1.32-.84,2.82-.32,4.15a5.83,5.83,0,0,0,2.49,2.45,34.28,34.28,0,0,0,3.72,2c9.4,4.4,20.23,4.52,30.29,2.78,2.48-.43,5-.93,7.41-1.6a10.22,10.22,0,0,0,5.69-3.32,8.67,8.67,0,0,0,1.67-5,7.9,7.9,0,0,0-.21-1.83C115.13,154.15,112.13,155.72,109.29,156.43Z" style="fill:#d98951"/><path d="M72.37,25.1a.44.44,0,0,0,0,.19,2.16,2.16,0,0,1,0,.84,11.67,11.67,0,0,0-.1,1.56,12.38,12.38,0,0,0,.26,2.43c1.64-.78,3.32-1.5,5-2.13-.13-.26-.26-.52-.41-.76s-.21-.36-.32-.54l-.09-.14h0l0-.05-.17-.25c-.24-.35-.49-.7-.75-1l-.36-.46a.52.52,0,0,1-.5-.38.7.7,0,0,1,0-.25,1.88,1.88,0,0,1-.85.1C73.52,24.51,72.94,24.8,72.37,25.1Z" style="fill:#d98951"/><path d="M98.19,123.1c-6.28,1.18-12.71.43-18.89-.93-3.14-.7-6.25-1.57-9.33-2.54A43.62,43.62,0,0,1,61.05,116c-9-5.23-14.49-14.73-18.48-24.11a.41.41,0,0,1-.49-.24c-2.38-5.91-2.93-12.74-2.67-19.07A55.91,55.91,0,0,1,50.17,41.8,57.36,57.36,0,0,1,60.66,31a48.56,48.56,0,0,1,13.11-7.59c1.4-.52,1.68-1.59.44-2.44a4.46,4.46,0,0,0-2.57-.66A12.12,12.12,0,0,0,66,22.33a61.56,61.56,0,0,0-8.54,6.17A63.77,63.77,0,0,0,36.6,90.87c0,.27.13.54.19.8a15.41,15.41,0,0,1,1.12,3c.4,1,.84,2.09,1.33,3.1a45.32,45.32,0,0,0,3.43,5.92A46.63,46.63,0,0,0,47,109.05c4,4.18,7.89,7.76,13,10.38a54.27,54.27,0,0,0,13.69,4.93,120.53,120.53,0,0,0,17.16,2c2.59.16,5.19.36,7.79.27a26.39,26.39,0,0,0,7.37-1.38.51.51,0,0,1,.3,0c1.14-.71,3.48-2.43,2-3.83s-3.58-.32-5,.26A26.91,26.91,0,0,1,98.19,123.1Z" style="fill:#ecc05f"/><path d="M58.79,42.84a56.32,56.32,0,0,0-8.88,11.84,34,34,0,0,0-3.49,15c-.05,1.81,0,3.63.1,5.44a1,1,0,0,1,.35.35c.48.84,1.73,1,2.59,1.07a22.1,22.1,0,0,1,3.35.44,9.35,9.35,0,0,1,3.2,1.6,10.47,10.47,0,0,1,3.8,5.7c.72,2.84-.31,5.53-1.05,8.25-.57,2.07-.94,5.13,1.16,6.51,1.15.77,2.59,1,3.76,1.74a13.2,13.2,0,0,1,2.65,2.41,24.27,24.27,0,0,0,2.46,2.61,8.1,8.1,0,0,0,3.8,1.66c1.41.27,2.85.45,4.24.85s2.76,1,4.14,1.54c1.82.7,6.68,2.41,7.18-.76a4.65,4.65,0,0,0-1.33-3.57c-1-1.17-2.08-2.22-3.13-3.31q-3.47-3.62-6.92-7.25c-1.13-1.19-2.28-2.37-3.42-3.55A35.4,35.4,0,0,0,69.87,88c-1.62-1.26-4-2.45-4.19-4.75a5.8,5.8,0,0,1,.35-2,4,4,0,0,0-.1-2.3,15.12,15.12,0,0,1-.79-4.26,10.35,10.35,0,0,1,.93-4.24A3.55,3.55,0,0,1,67.16,69a4.05,4.05,0,0,1,1.52-.53c2.45-.62,1-4.27.4-5.72a9,9,0,0,1-.89-3.81,4.46,4.46,0,0,1,1.75-3.17,29.89,29.89,0,0,0,3-2.65,19.09,19.09,0,0,0,2.33-3.18,18.58,18.58,0,0,0,2.51-7.76c.24-2.85-.2-5.64.63-8.42a14.07,14.07,0,0,1,2.45-4.66,49.35,49.35,0,0,0-13.69,6.36A48.09,48.09,0,0,0,58.79,42.84Z" style="fill:#bfd27c"/><path d="M95.79,129.92a9.39,9.39,0,0,1-.48-1.54c-1.85,0-3.71-.13-5.55-.24a25.41,25.41,0,0,1-2.52,5.64q-1.42,2.82-2.84,5.65c-.73,1.43-1.28,2.79-.23,4.22a7.25,7.25,0,0,0,4,2.3c3,.87,6.69,2,9.56.23,3.12-1.91,1.9-5.83.91-8.65-.6-1.7-1.26-3.37-1.89-5.05C96.42,131.63,96.1,130.77,95.79,129.92Z" style="fill:#d98951"/><path d="M120,74.31a8.42,8.42,0,0,0-2-2.85,6.09,6.09,0,0,0-2.79-1.24l-.07,0a3.41,3.41,0,0,1-.89.22c-.18,0-.53,0-.66.11s-.17,1.19-.17,1.55A7.55,7.55,0,0,0,114,75.4a4.56,4.56,0,0,0,.77,1.17c.33.37.77.62,1.11,1a4,4,0,0,1,.72,3,7,7,0,0,0,.21,1.83,6.69,6.69,0,0,0,.27.9.38.38,0,0,1,0,.11h0l.13,0a8.85,8.85,0,0,1,1.78-.68,2.26,2.26,0,0,0,.71-.31,1.18,1.18,0,0,0,.16-.63c.18-1.32.36-2.64.55-4a6.46,6.46,0,0,0,.13-1.86A5.72,5.72,0,0,0,120,74.31Z" style="fill:#bfd27c"/><path d="M123.34,91.62c-1.57-.9-1.51-2.62-1.06-4.17s1.24-2.68,1.73-4.07a3.91,3.91,0,0,0,.21-2.14,11.28,11.28,0,0,1-.54-2.13c-.07-1.62,1.07-2.77,1.52-4.24.52-1.7-.54-3.47-1.51-4.78a16.23,16.23,0,0,0-7.27-5.5c-2.37-.87-5.81-.69-7.49-2.88s-.1-4.84.74-7.07a4.62,4.62,0,0,0-.17-4.13,10.11,10.11,0,0,1-1.61-3.88,10.09,10.09,0,0,1,1.16-4.6,9.53,9.53,0,0,0-1.48-10.27c-4.17-1.89-8.51-3.62-13.07-4.09a35.34,35.34,0,0,0-11.65.91,12.93,12.93,0,0,0-2.17,2.82c-1.55,2.78-1.64,5.66-1.59,8.76a19.72,19.72,0,0,1-5.77,14.67,34.16,34.16,0,0,0-3,2.71c-1,1.27-.44,2.91.1,4.25.82,2,1.83,4.25.88,6.43A3.2,3.2,0,0,1,69,70.09a1.7,1.7,0,0,0-1,.45,3.22,3.22,0,0,0-.48.94,8.56,8.56,0,0,0-.55,2.1,11.12,11.12,0,0,0,.61,4.78,6.81,6.81,0,0,1,.37,2,8.61,8.61,0,0,1-.44,2.06c-.3,1.3.74,2.18,1.68,2.89a37.86,37.86,0,0,1,3,2.34c2.44,2.24,4.66,4.73,7,7.08s4.78,4.85,7.16,7.28c1.88,1.93,4.16,4.09,3.88,7s-3,4.16-5.75,3.87c-3-.32-5.72-2-8.64-2.74s-5.76-.71-8.12-2.63c-1.91-1.56-3.16-3.89-5.29-5.19-1.19-.73-2.62-1-3.77-1.77a5.55,5.55,0,0,1-2-2.87c-.83-2.66,0-5.31.78-7.87s1-5.21-.61-7.61a7.92,7.92,0,0,0-5.82-3.63,10.5,10.5,0,0,1-4.25-.88c.2,2.43.49,4.85.87,7.23a32.06,32.06,0,0,0,1.85,7.14,29,29,0,0,0,3.93,6.6,57.38,57.38,0,0,0,10.08,10.4A43.82,43.82,0,0,0,90,118.37c17.75.21,35-11,42.41-27a10.18,10.18,0,0,1-4.79,1.35A8.35,8.35,0,0,1,123.34,91.62ZM122.09,79.5c-.11.9-.21,1.8-.35,2.69a2.33,2.33,0,0,1-.83,1.67,9.16,9.16,0,0,1-2.17,1,4.46,4.46,0,0,1-2,.6c-1.46-.24-1.81-2.76-1.91-3.94a12.15,12.15,0,0,0-.07-2.26c-.16-.53-.84-.87-1.22-1.26a7.25,7.25,0,0,1-1.76-3.57,10,10,0,0,1-.08-3.93c.7-3.37,5.88-1.21,7.5.15A11.48,11.48,0,0,1,122,74.7C122.71,76.24,122.3,77.9,122.09,79.5Z" style="fill:#76bcdd"/><path d="M133.38,61.65a49.65,49.65,0,0,0-12.71-21.53,40.62,40.62,0,0,0-11.14-7.45,11.14,11.14,0,0,1,1.45,4,10.88,10.88,0,0,1-.19,4.29c-.45,1.77-1.61,3.5-1.53,5.37.07,1.47,1.08,2.65,1.71,3.92a5.37,5.37,0,0,1,.44,3.65,27.43,27.43,0,0,1-1.36,3.64c-.43,1.16-.73,2.51.25,3.49s2.4,1.11,3.61,1.34a19.64,19.64,0,0,1,4.07,1.2,17.2,17.2,0,0,1,6.84,5.21,10.38,10.38,0,0,1,2.12,4,6,6,0,0,1-.83,4.28,3.49,3.49,0,0,0-.6,2.2c.12.72.51,1.37.58,2.12a7.58,7.58,0,0,1-.9,4c-.5,1.12-1.54,2.74-1.28,4,.22,1,2.54,1.21,3.39,1.21a7.83,7.83,0,0,0,3.58-.91,13.41,13.41,0,0,0,2.84-2.37.75.75,0,0,1,.37-.2,33.9,33.9,0,0,0,1.74-11.23A53.5,53.5,0,0,0,133.38,61.65Z" style="fill:#bfd27c"/><path d="M105.89,118.43a2.86,2.86,0,0,1-.07-.28,2.68,2.68,0,0,1-.07-.27c-1.11.37-2.24.72-3.37,1a.8.8,0,0,1,.1.23,2.11,2.11,0,0,1,0,.25c0-.06,0-.12,0-.18l0,.51c0-.07,0-.13,0-.2a1.59,1.59,0,0,0,.07.38c.06.17.14.33.19.49,0,0,0-.05,0-.07h0l0-.08,0,.1,0,.06,0,0h0a0,0,0,0,1,0,0h0l0,0s0,0,0,.07a14.54,14.54,0,0,1,3.42-.86c-.11-.28-.16-.59-.25-.86a1.54,1.54,0,0,1,0,.17C106,118.72,105.92,118.58,105.89,118.43Z" style="fill:#d98951"/><path d="M119.15,70.6c-1.62-1.36-6.8-3.52-7.5-.15a10,10,0,0,0,.08,3.93A7.25,7.25,0,0,0,113.49,78c.38.39,1.06.73,1.22,1.26a12.15,12.15,0,0,1,.07,2.26c.1,1.18.45,3.7,1.91,3.94a4.46,4.46,0,0,0,2-.6,9.16,9.16,0,0,0,2.17-1,2.33,2.33,0,0,0,.83-1.67c.14-.89.24-1.79.35-2.69.21-1.6.62-3.26-.06-4.8A11.48,11.48,0,0,0,119.15,70.6Zm1.36,7.19c-.19,1.32-.37,2.64-.55,4a1.18,1.18,0,0,1-.16.63,2.26,2.26,0,0,1-.71.31,8.85,8.85,0,0,0-1.78.68l-.13,0h0a.38.38,0,0,0,0-.11,6.69,6.69,0,0,1-.27-.9,7,7,0,0,1-.21-1.83,4,4,0,0,0-.72-3c-.34-.36-.78-.61-1.11-1A4.56,4.56,0,0,1,114,75.4a7.55,7.55,0,0,1-.64-3.25c0-.36-.1-1.29.17-1.55s.48-.1.66-.11a3.41,3.41,0,0,0,.89-.22l.07,0A6.09,6.09,0,0,1,118,71.46a8.42,8.42,0,0,1,2,2.85,5.72,5.72,0,0,1,.67,1.62A6.46,6.46,0,0,1,120.51,77.79Z" style="fill:#0c4142"/><path d="M102.79,120.38l0-.06h0Z"/><path d="M102.72,120.22l0,.08a0,0,0,0,0,0,0Z"/><path d="M102.75,120.3h0" style="fill:#fff"/><path d="M137.09,67.55a56.87,56.87,0,0,0-10.6-24.33,41.73,41.73,0,0,0-9.7-9.1,65,65,0,0,0-14.56-6.91,33.15,33.15,0,0,0-15.4-1.58,43,43,0,0,0-8,1.93,19.26,19.26,0,0,0-1.76-2.79c-.18-.22-.35-.45-.54-.66a1.55,1.55,0,0,0-.72-.5,2.43,2.43,0,0,0,.72-1.42c.2-1.63-1.33-2.91-2.73-3.36-3.61-1.17-7.24,1.07-10.17,2.94A65.57,65.57,0,0,0,33.3,76a67.24,67.24,0,0,0,1,12.75C36.79,102.5,46,113.29,57.91,120.05a56.36,56.36,0,0,0,13.55,5.5A90.22,90.22,0,0,0,88.28,128a30,30,0,0,0-2.79,4.9l-2.41,4.67a21.16,21.16,0,0,0-9.38,1.69c-2.92,1.16-6,2.87-7.71,5.65a6,6,0,0,0-.91,3.15c-.35,1-.65,2-1,3a11.59,11.59,0,0,0-.68,3.81c.14,2.51,2.35,3.94,4.31,5.1a41.8,41.8,0,0,0,15.61,5.26,60.33,60.33,0,0,0,17.49-.44,75.46,75.46,0,0,0,8.55-1.79,12.3,12.3,0,0,0,6.23-3.44,10.14,10.14,0,0,0,2.43-6.44c0-2-.42-4.36-2-5.71a10.51,10.51,0,0,0-4-4.68A34.53,34.53,0,0,0,101.12,138c-.45-1.43-1-2.84-1.54-4.23-.46-1.17-.91-2.34-1.37-3.5-.24-.61-.45-1.28-.74-1.9.34,0,.67,0,1,0a19.18,19.18,0,0,0,5.37-.9,7.78,7.78,0,0,0,1.85-.48,9.2,9.2,0,0,0,3.52-2.38,2.77,2.77,0,0,0,.48-3.44,3.69,3.69,0,0,0-2.25-1.52,1.26,1.26,0,0,0,0-.74,5.16,5.16,0,0,0-.2-.67,2.59,2.59,0,0,0-.32-.59,1.47,1.47,0,0,0-.1-.13c1.36-.5,2.71-1.06,4-1.69a50.78,50.78,0,0,0,20.4-18,42.41,42.41,0,0,0,6-14.08A41,41,0,0,0,137.09,67.55ZM80.83,29.1a14.07,14.07,0,0,0-2.45,4.66c-.83,2.78-.39,5.57-.63,8.42a18.58,18.58,0,0,1-2.51,7.76,19.09,19.09,0,0,1-2.33,3.18,29.89,29.89,0,0,1-3,2.65,4.46,4.46,0,0,0-1.75,3.17,9,9,0,0,0,.89,3.81c.59,1.45,2,5.1-.4,5.72a4.05,4.05,0,0,0-1.52.53,3.55,3.55,0,0,0-1.09,1.47,10.35,10.35,0,0,0-.93,4.24A15.12,15.12,0,0,0,65.93,79a4,4,0,0,1,.1,2.3,5.8,5.8,0,0,0-.35,2c.2,2.3,2.57,3.49,4.19,4.75a35.4,35.4,0,0,1,3.48,3.34c1.14,1.18,2.29,2.36,3.42,3.55q3.45,3.63,6.92,7.25c1,1.09,2.16,2.14,3.13,3.31a4.65,4.65,0,0,1,1.33,3.57c-.5,3.17-5.36,1.46-7.18.76-1.38-.52-2.73-1.12-4.14-1.54s-2.83-.58-4.24-.85a8.1,8.1,0,0,1-3.8-1.66,24.27,24.27,0,0,1-2.46-2.61,13.2,13.2,0,0,0-2.65-2.41c-1.17-.75-2.61-1-3.76-1.74-2.1-1.38-1.73-4.44-1.16-6.51.74-2.72,1.77-5.41,1.05-8.25a10.47,10.47,0,0,0-3.8-5.7,9.35,9.35,0,0,0-3.2-1.6,22.1,22.1,0,0,0-3.35-.44c-.86-.09-2.11-.23-2.59-1.07a1,1,0,0,0-.35-.35c-.09-1.81-.15-3.63-.1-5.44a34,34,0,0,1,3.49-15,56.32,56.32,0,0,1,8.88-11.84,48.09,48.09,0,0,1,8.35-7.38A49.35,49.35,0,0,1,80.83,29.1ZM101.12,120a1.73,1.73,0,0,0,.38.75,42.47,42.47,0,0,1-4.2.93,41.2,41.2,0,0,1-10.11.18,81.93,81.93,0,0,1-20-4.8,33.21,33.21,0,0,1-14.8-10.69c-3.89-4.8-6.79-10.35-9.63-15.82-.57-2.49-1.16-5-1.54-7.49a54.92,54.92,0,0,1-.6-8.4,55.61,55.61,0,0,1,2.6-16.59A54.69,54.69,0,0,1,60.08,33a61.29,61.29,0,0,1,11.18-7.35c0,.12,0,.25-.05.35a12.48,12.48,0,0,0-.13,1.61,12.24,12.24,0,0,0,.33,3.07A57.27,57.27,0,0,0,65.79,34a.72.72,0,0,0-.31.45C60.33,37.89,56,42.84,52.34,47.57a35.22,35.22,0,0,0-6.86,13.92,54,54,0,0,0-.67,16.15c.43,5.25.92,10.72,3,15.63,2,4.65,5.43,8.74,8.89,12.35a48.69,48.69,0,0,0,12,9.31,46,46,0,0,0,13.82,4.78,46.83,46.83,0,0,0,18.65-.49A1.55,1.55,0,0,0,101.12,120ZM75,24.38a.52.52,0,0,0,.5.38l.36.46c.26.33.51.68.75,1l.17.25,0,.05h0l.09.14c.11.18.22.36.32.54s.28.5.41.76c-1.71.63-3.39,1.35-5,2.13a12.38,12.38,0,0,1-.26-2.43,11.67,11.67,0,0,1,.1-1.56,2.16,2.16,0,0,0,0-.84.44.44,0,0,1,0-.19c.57-.3,1.15-.59,1.73-.87a1.88,1.88,0,0,0,.85-.1A.7.7,0,0,0,75,24.38ZM116.1,151.22a7.9,7.9,0,0,1,.21,1.83,8.67,8.67,0,0,1-1.67,5A10.22,10.22,0,0,1,109,161.4c-2.44.67-4.93,1.17-7.41,1.6-10.06,1.74-20.89,1.62-30.29-2.78a34.28,34.28,0,0,1-3.72-2A5.83,5.83,0,0,1,65,155.74c-.52-1.33,0-2.83.32-4.15l.27-1.22a6,6,0,0,0,1.74,2.14,18.21,18.21,0,0,0,4.19,2.26,42.31,42.31,0,0,0,5.25,1.82,60.83,60.83,0,0,0,21.55,1.51,73.23,73.23,0,0,0,10.93-1.67C112.13,155.72,115.13,154.15,116.1,151.22Zm-15-5.34a7.72,7.72,0,0,0,.59-5.55c0-.16-.07-.3-.11-.46a44.88,44.88,0,0,1,7.85,3.35c2.1,1.18,4.68,2.91,5.19,5.46.61,3.13-2.47,5.16-5.06,5.91a59.29,59.29,0,0,1-9.45,1.63A64.3,64.3,0,0,1,80.85,156a42.1,42.1,0,0,1-9.2-2.78c-2.37-1-5.73-2.66-5.07-5.82s4.29-5.23,7-6.43a30.77,30.77,0,0,1,8.84-2.12l0,.08c-.84,1.67-1.27,3.35-.42,5.1a7.26,7.26,0,0,0,3.83,3.36A27.61,27.61,0,0,0,91.7,149a11.06,11.06,0,0,0,5.71-.25A6.91,6.91,0,0,0,101.13,145.88Zm-2.5-8.35c1,2.82,2.21,6.74-.91,8.65-2.87,1.76-6.58.64-9.56-.23a7.25,7.25,0,0,1-4-2.3c-1-1.43-.5-2.79.23-4.22q1.41-2.84,2.84-5.65a25.41,25.41,0,0,0,2.52-5.64c1.84.11,3.7.21,5.55.24a9.39,9.39,0,0,0,.48,1.54c.31.85.63,1.71.95,2.56C97.37,134.16,98,135.83,98.63,137.53Zm9.65-16.16c1.49,1.4-.85,3.12-2,3.83a.51.51,0,0,0-.3,0,26.39,26.39,0,0,1-7.37,1.38c-2.6.09-5.2-.11-7.79-.27a120.53,120.53,0,0,1-17.16-2A54.27,54.27,0,0,1,60,119.43c-5.08-2.62-9-6.2-13-10.38a46.63,46.63,0,0,1-4.34-5.36,45.32,45.32,0,0,1-3.43-5.92c-.49-1-.93-2-1.33-3.1a15.41,15.41,0,0,0-1.12-3c-.06-.26-.14-.53-.19-.8a64.82,64.82,0,0,1-1.42-10.29A63.45,63.45,0,0,1,57.49,28.5,61.56,61.56,0,0,1,66,22.33a12.12,12.12,0,0,1,5.61-2.07,4.46,4.46,0,0,1,2.57.66c1.24.85,1,1.92-.44,2.44A48.56,48.56,0,0,0,60.66,31,57.36,57.36,0,0,0,50.17,41.8,55.91,55.91,0,0,0,39.41,72.54c-.26,6.33.29,13.16,2.67,19.07a.41.41,0,0,0,.49.24c4,9.38,9.5,18.88,18.48,24.11A43.62,43.62,0,0,0,70,119.63c3.08,1,6.19,1.84,9.33,2.54,6.18,1.36,12.61,2.11,18.89.93a26.91,26.91,0,0,0,5.06-1.47C104.7,121.05,106.92,120.1,108.28,121.37Zm-2.06-1.82a14.54,14.54,0,0,0-3.42.86s0,0,0-.07l0,0s0,0,0,.07c0-.16-.13-.32-.19-.49a1.59,1.59,0,0,1-.07-.38c0,.07,0,.13,0,.2l0-.51c0,.06,0,.12,0,.18a2.11,2.11,0,0,0,0-.25.8.8,0,0,0-.1-.23c1.13-.29,2.26-.64,3.37-1a2.68,2.68,0,0,0,.07.27,2.86,2.86,0,0,0,.07.28c0,.15.09.29.13.43a1.54,1.54,0,0,0,0-.17C106.06,119,106.11,119.27,106.22,119.55ZM90,118.37a43.82,43.82,0,0,1-26.56-9.22,57.38,57.38,0,0,1-10.08-10.4,29,29,0,0,1-3.93-6.6A32.06,32.06,0,0,1,47.56,85c-.38-2.38-.67-4.8-.87-7.23a10.5,10.5,0,0,0,4.25.88,7.92,7.92,0,0,1,5.82,3.63c1.57,2.4,1.39,5,.61,7.61s-1.61,5.21-.78,7.87a5.55,5.55,0,0,0,2,2.87c1.15.82,2.58,1,3.77,1.77,2.13,1.3,3.38,3.63,5.29,5.19,2.36,1.92,5.32,1.87,8.12,2.63s5.59,2.42,8.64,2.74c2.7.29,5.46-.88,5.75-3.87s-2-5.11-3.88-7q-3.57-3.65-7.16-7.28c-2.33-2.35-4.55-4.84-7-7.08a37.86,37.86,0,0,0-3-2.34c-.94-.71-2-1.59-1.68-2.89a8.61,8.61,0,0,0,.44-2.06,6.81,6.81,0,0,0-.37-2,11.12,11.12,0,0,1-.61-4.78,8.56,8.56,0,0,1,.55-2.1,3.22,3.22,0,0,1,.48-.94,1.7,1.7,0,0,1,1-.45,3.2,3.2,0,0,0,2.28-1.87c.95-2.18-.06-4.41-.88-6.43-.54-1.34-1.1-3-.1-4.25a34.16,34.16,0,0,1,3-2.71,19.72,19.72,0,0,0,5.77-14.67c0-3.1,0-6,1.59-8.76a12.93,12.93,0,0,1,2.17-2.82,35.34,35.34,0,0,1,11.65-.91c4.56.47,8.9,2.2,13.07,4.09A9.53,9.53,0,0,1,109.05,42a10.09,10.09,0,0,0-1.16,4.6,10.11,10.11,0,0,0,1.61,3.88,4.62,4.62,0,0,1,.17,4.13c-.84,2.23-2.45,4.82-.74,7.07s5.12,2,7.49,2.88a16.23,16.23,0,0,1,7.27,5.5c1,1.31,2,3.08,1.51,4.78-.45,1.47-1.59,2.62-1.52,4.24a11.28,11.28,0,0,0,.54,2.13,3.91,3.91,0,0,1-.21,2.14c-.49,1.39-1.32,2.65-1.73,4.07s-.51,3.27,1.06,4.17a8.35,8.35,0,0,0,4.26,1.06,10.18,10.18,0,0,0,4.79-1.35C124.93,107.36,107.73,118.58,90,118.37Zm44.11-31.24a.75.75,0,0,0-.37.2,13.41,13.41,0,0,1-2.84,2.37,7.83,7.83,0,0,1-3.58.91c-.85,0-3.17-.16-3.39-1.21-.26-1.29.78-2.91,1.28-4a7.58,7.58,0,0,0,.9-4c-.07-.75-.46-1.4-.58-2.12a3.49,3.49,0,0,1,.6-2.2,6,6,0,0,0,.83-4.28,10.38,10.38,0,0,0-2.12-4A17.2,17.2,0,0,0,118,63.56a19.64,19.64,0,0,0-4.07-1.2c-1.21-.23-2.7-.42-3.61-1.34s-.68-2.33-.25-3.49a27.43,27.43,0,0,0,1.36-3.64,5.37,5.37,0,0,0-.44-3.65c-.63-1.27-1.64-2.45-1.71-3.92-.08-1.87,1.08-3.6,1.53-5.37a10.88,10.88,0,0,0,.19-4.29,11.14,11.14,0,0,0-1.45-4,40.62,40.62,0,0,1,11.14,7.45,49.65,49.65,0,0,1,12.71,21.53,53.5,53.5,0,0,1,2.45,14.25A33.9,33.9,0,0,1,134.09,87.13Z" style="fill:#0c4142"/><path d="M123.27,85.07a72.3,72.3,0,0,1-21.1,4.14,64.1,64.1,0,0,1-34.32-8.43,14.83,14.83,0,0,1-.41,1.69c-.3,1.3.74,2.18,1.68,2.89a37.86,37.86,0,0,1,3,2.34c2.44,2.24,4.66,4.73,7,7.08s4.78,4.85,7.16,7.28c1.88,1.93,4.16,4.09,3.88,7s-3,4.16-5.75,3.87c-3-.32-5.72-2-8.64-2.74s-5.76-.71-8.12-2.63c-1.91-1.56-3.16-3.89-5.29-5.19-1.19-.73-2.62-1-3.77-1.77a5.55,5.55,0,0,1-2-2.87c-.83-2.66,0-5.31.78-7.87s1-5.21-.61-7.61a7.92,7.92,0,0,0-5.82-3.63,10.5,10.5,0,0,1-4.25-.88c.2,2.43.49,4.85.87,7.23a32.06,32.06,0,0,0,1.85,7.14,29,29,0,0,0,3.93,6.6,57.38,57.38,0,0,0,10.08,10.4A43.82,43.82,0,0,0,90,118.37c17.75.21,35-11,42.41-27a10.18,10.18,0,0,1-4.79,1.35,8.35,8.35,0,0,1-4.26-1.06c-1.57-.9-1.51-2.62-1.06-4.17A15.93,15.93,0,0,1,123.27,85.07Z" style="fill:#58a2ac"/><path d="M83.69,102.18q-3.47-3.62-6.92-7.25c-1.13-1.19-2.28-2.37-3.42-3.55A35.4,35.4,0,0,0,69.87,88c-1.62-1.26-4-2.45-4.19-4.75a5.8,5.8,0,0,1,.35-2,3.49,3.49,0,0,0,.12-1.14,42.82,42.82,0,0,1-8.8-5c-3.83-3-6.75-6.92-9.62-10.82L47,63.39a43.66,43.66,0,0,0-.62,6.26c-.05,1.81,0,3.63.1,5.44a1,1,0,0,1,.35.35c.48.84,1.73,1,2.59,1.07a22.1,22.1,0,0,1,3.35.44,9.35,9.35,0,0,1,3.2,1.6,10.47,10.47,0,0,1,3.8,5.7c.72,2.84-.31,5.53-1.05,8.25-.57,2.07-.94,5.13,1.16,6.51,1.15.77,2.59,1,3.76,1.74a13.2,13.2,0,0,1,2.65,2.41,24.27,24.27,0,0,0,2.46,2.61,8.1,8.1,0,0,0,3.8,1.66c1.41.27,2.85.45,4.24.85s2.76,1,4.14,1.54c1.82.7,6.68,2.41,7.18-.76a4.65,4.65,0,0,0-1.33-3.57C85.85,104.32,84.74,103.27,83.69,102.18Z" style="fill:#a0af6a"/><path d="M135.82,77.37a70.64,70.64,0,0,1-10.26,7.13c-.11.29-.24.59-.37.87-.5,1.12-1.54,2.74-1.28,4,.22,1,2.54,1.21,3.39,1.21a7.83,7.83,0,0,0,3.58-.91,13.41,13.41,0,0,0,2.84-2.37.75.75,0,0,1,.37-.2A34,34,0,0,0,135.82,77.37Z" style="fill:#a0af6a"/><path d="M120.67,40.12a40.53,40.53,0,0,0-10.94-7.36l0,.18a11.56,11.56,0,0,1,1.19,3.17,68.73,68.73,0,0,1,9.68,7.74,12.2,12.2,0,0,1,1.66,1.86,22.12,22.12,0,0,1,1.92,4.56c1.11,2.85,3,5.34,4.59,7.93a59.09,59.09,0,0,1,5.95,12.42A3.23,3.23,0,0,0,135.4,72a1.13,1.13,0,0,0,.18.12,59.44,59.44,0,0,0-2.2-10.44A49.65,49.65,0,0,0,120.67,40.12Z" style="fill:#e7e89f"/><path d="M80.83,29.1a49.35,49.35,0,0,0-13.69,6.36,48.09,48.09,0,0,0-8.35,7.38,56.32,56.32,0,0,0-8.88,11.84,27.39,27.39,0,0,0-1.14,2.54,24.79,24.79,0,0,0,4.69-4.52c1.28-1.61,2.36-3.38,3.71-4.94a32.66,32.66,0,0,1,5-4.42A100.21,100.21,0,0,1,78.72,32.79,14.53,14.53,0,0,1,80.83,29.1Z" style="fill:#e7e89f"/><path d="M109.7,36.08a10,10,0,0,0-2.13-4.32c-4.17-1.89-8.51-3.62-13.07-4.09a35.34,35.34,0,0,0-11.65.91,12.93,12.93,0,0,0-2.17,2.82A12,12,0,0,0,80,32.91c7.1-1.74,14.67-.54,21.89.91A35.29,35.29,0,0,1,109.7,36.08Z" style="fill:#aad4f4"/><path d="M97.46,60.21a19.57,19.57,0,0,1-3.78-.73A4.62,4.62,0,0,1,92,58.57c-.51-.45-.79-1.1-1.39-1.45-1.71-1-3.11,1.09-4.74,1.36s-3.16-1.92-4.26-2.93a1.47,1.47,0,0,0-2-.18A32,32,0,0,1,74.81,59c-.81.54-.1,2,.83,1.75a18.23,18.23,0,0,0,4.65-2.32c1.18,1.29,2.51,2.67,4.16,3a5.42,5.42,0,0,0,2.85-.17,8.51,8.51,0,0,0,1.36-.57,7.18,7.18,0,0,0,.64-.43,3,3,0,0,0,.24.32,8,8,0,0,0,1.08.94,7.79,7.79,0,0,0,2.51,1.13,4.47,4.47,0,0,0,4.75-1.56A.57.57,0,0,0,97.46,60.21Z" style="fill:#aad4f4"/><path d="M110.2,82.22a.47.47,0,0,0-.46-.25c-.16-.09-.35-.17-.54-.26l-.34-.19c-.26-.15-.53-.29-.8-.42a3,3,0,0,0-3.37.3,1.37,1.37,0,0,1-1.72.22,5,5,0,0,1-1.77-2,1.61,1.61,0,0,0-2.46-.53c-1,.87-2,1.75-3,2.58a5.33,5.33,0,0,1-1,.72c-.58.25-1,.35-1.09,1s.55,1.34,1.21,1.5a2.63,2.63,0,0,0,2.09-.53c.87-.57,1.71-1.17,2.54-1.8,1.33,1.64,3.13,2.88,5.4,2.34a6.1,6.1,0,0,0,1.78-1,8,8,0,0,1,.73.4c1.06.47,2.75.18,3-1A1.28,1.28,0,0,0,110.2,82.22Z" style="fill:#aad4f4"/><path d="M103.47,44.58a.47.47,0,0,0-.2-.45l-.07,0,0,0a1.38,1.38,0,0,0-.47-.4.93.93,0,0,1-.1-.1c-.13-.11.2.2,0,0a4.48,4.48,0,0,0-.4-.36l-.09-.07-.32-.29-.14-.1-.06-.08-.18-.21-.11-.18,0-.05a2.93,2.93,0,0,0-1-1.29c-1.18-.76-2.31,0-3.34.57a11.61,11.61,0,0,1-1.11.57l-.13.06-.22,0-.1,0a.71.71,0,0,0-1.07.52.28.28,0,0,1,0,.09c0,.07-.07.13-.1.21a1.08,1.08,0,0,0,.18,1,2.56,2.56,0,0,0,.73.54,2.14,2.14,0,0,0,1,.13,4.42,4.42,0,0,0,1.59-.39c.32-.14.63-.31,1-.47a4,4,0,0,0,1.79,1.85A2.7,2.7,0,0,0,102,46a2,2,0,0,0,.79-.28,1.16,1.16,0,0,0,.52-.78A.92.92,0,0,0,103.47,44.58Z" style="fill:#aad4f4"/><path d="M57.84,59.34h0a1.48,1.48,0,0,0-.13-.58c0-.1-.1-.2-.14-.31s-.21-.42-.31-.63a5.57,5.57,0,0,0-.56-.81,1.44,1.44,0,0,0-.69-.5,1.61,1.61,0,0,0-.37-.07,1.47,1.47,0,0,0-.42.06,1.14,1.14,0,0,0-.54.38,1.35,1.35,0,0,0-.22.43,1.64,1.64,0,0,0,0,.88,6.28,6.28,0,0,0,.27.94c.08.19.17.39.25.59s.07.2.12.3a2.17,2.17,0,0,0,.64.71,1.44,1.44,0,0,0,.66.25,1,1,0,0,0,.53-.08,1,1,0,0,0,.46-.24,1.21,1.21,0,0,0,.4-.57l0,0A1.42,1.42,0,0,0,57.84,59.34Z" style="fill:#e7e89f"/><path d="M70.55,45.21c0-.36-.08-.71-.13-1.07A1.14,1.14,0,0,0,70,43.4a1.23,1.23,0,0,0-.72-.2,1.07,1.07,0,0,0-.69.26,1.1,1.1,0,0,0-.41.79c0,.36,0,.72,0,1.08a7,7,0,0,0,0,.8,1.31,1.31,0,0,0,1.27,1.07,1,1,0,0,0,.66-.28,3,3,0,0,0,.24-.26A1.16,1.16,0,0,0,70.6,46,3.77,3.77,0,0,0,70.55,45.21Z" style="fill:#e7e89f"/><path d="M63.19,67.71h0l-.06-.18a1,1,0,0,0-.23-.44l0,0-.07-.11.18.28a3.51,3.51,0,0,0-.27-.4l-.12-.13a.61.61,0,0,0-.07-.1,2.15,2.15,0,0,1-.22-.46,1,1,0,0,0-.3-.39,1,1,0,0,0-.41-.27l-.34-.07a.94.94,0,0,0-.5.07.69.69,0,0,0-.3.14,1,1,0,0,0-.36.33,1.25,1.25,0,0,0-.21,1,3.43,3.43,0,0,0,.35.92,5.69,5.69,0,0,0,.33.52l.11.13a.91.91,0,0,0,.17.17,1.37,1.37,0,0,0,.18.16,1.82,1.82,0,0,0,.85.35,3.25,3.25,0,0,0,.54,0,1,1,0,0,0,.88-.85A1.07,1.07,0,0,0,63.19,67.71Z" style="fill:#e7e89f"/><path d="M117.16,48.08c0-.17,0-.34,0-.51a1.7,1.7,0,0,0-.18-.63c-.1-.19-.22-.37-.33-.54a1.27,1.27,0,0,0-.56-.44,1.07,1.07,0,0,0-1-.08,1,1,0,0,0-.55.68,1.32,1.32,0,0,0-.1.3.63.63,0,0,0,0,.21,2.35,2.35,0,0,1,0,.26,4,4,0,0,0,0,.6s0,.09,0,.14a1.23,1.23,0,0,0,0,.27,1.38,1.38,0,0,0,.17.46,1.31,1.31,0,0,0,.21.33l.25.23.16.09a1.07,1.07,0,0,0,.19.09,1.45,1.45,0,0,0,.3.06,1.63,1.63,0,0,0,.31,0,1.36,1.36,0,0,0,.2-.06,1.31,1.31,0,0,0,.45-.24.93.93,0,0,0,.26-.3,2.46,2.46,0,0,0,.23-.41c0-.13,0-.25.08-.37s0,0,0-.05A.21.21,0,0,0,117.16,48.08Z" style="fill:#e7e89f"/><path d="M118.06,59.42a.19.19,0,0,0,0-.07,3,3,0,0,0-.14-.45,2.41,2.41,0,0,0-.36-.52l-.1-.13a1.53,1.53,0,0,0-.62-.41l-.08,0-.09-.08-.23-.12a.82.82,0,0,0-.38-.05.53.53,0,0,0-.25.05.67.67,0,0,0-.32.17,1.09,1.09,0,0,0-.29.41.71.71,0,0,0-.05.38.82.82,0,0,0,.07.3v0c0,.07,0,.15,0,.22a1.34,1.34,0,0,0,0,.2c0,.1.07.21.1.31l.09.15a3.15,3.15,0,0,0,.33.53,2,2,0,0,0,.36.3l.06,0,.28.15a.8.8,0,0,0,.34.07l.32,0a.87.87,0,0,0,.42-.17.56.56,0,0,0,.23-.2.82.82,0,0,0,.25-.38,1,1,0,0,0,.08-.34Z" style="fill:#e7e89f"/><path d="M129.81,65.92c0-.17-.1-.33-.15-.5a1.39,1.39,0,0,0-.39-.59,5.7,5.7,0,0,0-.52-.46,1.19,1.19,0,0,0-.68-.29h-.25a.81.81,0,0,0-.31,0,.82.82,0,0,0-.54.35,1,1,0,0,0-.14.64.57.57,0,0,0,0,.14,1.33,1.33,0,0,0,0,.2,1.43,1.43,0,0,0,.18.46,3.69,3.69,0,0,1,.17.42,1.27,1.27,0,0,0,.2.36l.08.1c0,.06.09.13.14.2a1.4,1.4,0,0,0,.1.16,1.2,1.2,0,0,0,1.15.41,1.14,1.14,0,0,0,.3-.09,1.27,1.27,0,0,0,.46-.4,1.15,1.15,0,0,0,.22-.59A2.1,2.1,0,0,0,129.81,65.92Z" style="fill:#e7e89f"/><path d="M103.41,99.87c-.06-.05-.19-.17-.11-.08l-.23-.28a4.14,4.14,0,0,1-.37-.46,2.64,2.64,0,0,0-.39-.36l-.11-.1,0,0c-.21-.21-.44-.38-.67-.57L101.5,98h0l-.06-.06,0,0a2.09,2.09,0,0,1-.2-.22l-.21-.25c-.07-.09-.25-.43-.06-.07l-.19-.36a1.15,1.15,0,0,0-.23-.92,1.59,1.59,0,0,0-.39-.35,1.05,1.05,0,0,0-1-.3.84.84,0,0,0-.14.06c-1,.11-2.15.79-3,.87a4.05,4.05,0,0,1-3.12-1.14c-.52-.52-.8-1.2-1.48-1.56a2.1,2.1,0,0,0-2.45.51c-.52.46-1,1-1.57,1.37a3.17,3.17,0,0,1-1.51.8.9.9,0,0,0-.39,1.74,3.41,3.41,0,0,0,3-.22,8.27,8.27,0,0,0,1.29-.9c.16-.12.33-.28.51-.43a4.7,4.7,0,0,0,.35.43,7.08,7.08,0,0,0,1.17,1,7.31,7.31,0,0,0,2.91,1.13,6.53,6.53,0,0,0,3.13-.31c.31-.1.65-.2,1-.32a5.47,5.47,0,0,0,1,1.29,3.27,3.27,0,0,0,1,.72,2.54,2.54,0,0,0,1.15.22,3.2,3.2,0,0,0,.62-.09,2.22,2.22,0,0,0,.48-.2c-.13.07,0,0,0,0l.18-.09A.32.32,0,0,0,103.41,99.87Z" style="fill:#76bcdd"/><path d="M101.55,98l0,0c.05,0,.05,0-.09-.08l0,0Z" style="fill:#76bcdd"/><path d="M102.24,98.63h0C102.31,98.7,102.44,98.78,102.24,98.63Z" style="fill:#76bcdd"/><path d="M113.36,108.88a.54.54,0,0,0-.46-.56l-.3-.07h0l-.15-.11-.14-.14-.19-.13-.2-.12h0l0,0a3.8,3.8,0,0,0-.33-.37,2.5,2.5,0,0,0-3-.45,16.22,16.22,0,0,0-1.88,1.52c-.28.22-.57.44-.85.68.11-.1-.36.43-.18.22-.07.08-.16.14-.22.22a.87.87,0,0,0-.11.82c.14.42.73.65,1.14.7a2.77,2.77,0,0,0,1.41-.31,5.42,5.42,0,0,0,1-.77c.13-.12.26-.24.4-.35l.26-.2s0,0,0,0l.1,0c.1.11.19.23.29.33a2.2,2.2,0,0,0,1.65.75,1.42,1.42,0,0,0,.67-.19,1.18,1.18,0,0,0,.54-.38A1.29,1.29,0,0,0,113.36,108.88Z" style="fill:#76bcdd"/><path d="M56.06,90.09a.85.85,0,0,0-.23-.44l0,0v0l-.14-.16.09.09a2.51,2.51,0,0,0-.25-.32c-.13-.15-.24-.3-.38-.45s-.26-.3-.4-.44a3,3,0,0,0-1.67-1,2.21,2.21,0,0,0-1.88.65c-.15.14-.3.29-.46.42l-.11.1,0,.06-.13.07h0a1,1,0,0,0-.32,1.47,1.55,1.55,0,0,0,1,.5,2,2,0,0,0,1-.2,4.75,4.75,0,0,0,.58-.42l.09.11.32.42a2.1,2.1,0,0,0,.95.66,1.56,1.56,0,0,0,2-.53A.9.9,0,0,0,56.06,90.09Z" style="fill:#76bcdd"/><path d="M55.78,89.58h0l0,.05Z" style="fill:#76bcdd"/><path d="M55.76,89.54l0,0S55.79,89.58,55.76,89.54Z" style="fill:#76bcdd"/><path d="M95,147.06A15.18,15.18,0,0,1,91.65,140a29.21,29.21,0,0,1,.61-11.72l-2.5-.14a25.41,25.41,0,0,1-2.52,5.64q-1.42,2.82-2.84,5.65c-.73,1.43-1.28,2.79-.23,4.22a7.25,7.25,0,0,0,4,2.3A18.56,18.56,0,0,0,95,147.06Z" style="fill:#bd6c33"/><path d="M96.48,135.06c-.1-.36-.18-.72-.26-1.09a6.91,6.91,0,0,0-.44-1.33l-.18-.45a1.49,1.49,0,0,0-.58-.71,1,1,0,0,0-1.22.05,1.59,1.59,0,0,0-.55,1,5.41,5.41,0,0,0-.12.58,4.37,4.37,0,0,0-.09.5,4.17,4.17,0,0,0,.07.93c.13,1,.27,2.32,1.19,2.91l-.27-.25a1.59,1.59,0,0,0,1.12.55h0a1,1,0,0,0,.84-.29,1.6,1.6,0,0,0,.57-1.07l-.08.38A2.67,2.67,0,0,0,96.48,135.06Z" style="fill:#e5b181"/><path d="M98.15,140.05l-.07-.19,0-.1a.62.62,0,0,0-.11-.17,1,1,0,0,0-.11-.17l0,0-.26-.31-.25-.23a1,1,0,0,0-.48-.2.74.74,0,0,0-.36,0,1,1,0,0,0-.51.11l-.28.19-.24.25a1.12,1.12,0,0,0-.2.48,1.09,1.09,0,0,0,0,.54c0,.13.06.26.08.39a1.33,1.33,0,0,0,.14.44l0,.08.12.19a1.06,1.06,0,0,0,.33.43,1.16,1.16,0,0,0,.46.29,1.12,1.12,0,0,0,.57.08,1.13,1.13,0,0,0,.54-.13l.3-.2a1.37,1.37,0,0,0,.42-.59l.09-.37A1.46,1.46,0,0,0,98.15,140.05Z" style="fill:#e5b181"/><path d="M91.78,155.51c-1-1-2.24-2.09-2.1-3.49a3.1,3.1,0,0,1,2.07-2.34,9.19,9.19,0,0,1,1.71-.46A14.85,14.85,0,0,1,91.7,149a27.61,27.61,0,0,1-5.86-1.66A7.26,7.26,0,0,1,82,144c-.85-1.75-.42-3.43.42-5.1l0-.08a30.77,30.77,0,0,0-8.84,2.12c-2.76,1.2-6.37,3.19-7,6.43s2.7,4.78,5.07,5.82a42.1,42.1,0,0,0,9.2,2.78,56.9,56.9,0,0,0,12,.83A7,7,0,0,0,91.78,155.51Z" style="fill:#de983f"/><path d="M110.62,147.1c-.08-.33-.19-.66-.3-1a4.31,4.31,0,0,0-.53-.87,7,7,0,0,0-1.13-1.17,4.7,4.7,0,0,0-1.37-.83,5.94,5.94,0,0,0-.6-.18,3.06,3.06,0,0,0-.73-.1c-.11,0-.22,0-.33,0a2.47,2.47,0,0,0-.29.06,1.54,1.54,0,0,0-1.18,1.15,1.38,1.38,0,0,0,0,.78,1.59,1.59,0,0,0,.53.75l-.23-.21a3.31,3.31,0,0,0,.66.58,4.17,4.17,0,0,1,.44.29c.24.17.48.34.7.52a4.67,4.67,0,0,1,.64.77l-.26-.4.48.73c.07.13.15.25.23.37a1.71,1.71,0,0,0,1.34.8,1.34,1.34,0,0,0,.69,0,1.37,1.37,0,0,0,.47-.28l.12-.08A1.79,1.79,0,0,0,110.62,147.1Z" style="fill:#f8e282"/><path d="M112.18,151.18l-.06-.36a1.48,1.48,0,0,0-.31-.67l-.28-.25a1.46,1.46,0,0,0-.7-.26,1.63,1.63,0,0,0-1.06.34,1.06,1.06,0,0,0-.33.43,1.08,1.08,0,0,0-.17.55,1.46,1.46,0,0,0,.13.74l.12.34a1.08,1.08,0,0,0,.33.43,1.13,1.13,0,0,0,.45.29l.37.08a1.12,1.12,0,0,0,.55-.07.78.78,0,0,0,.33-.16,1,1,0,0,0,.39-.36l.17-.32A1.49,1.49,0,0,0,112.18,151.18Z" style="fill:#f8e282"/><path d="M97.2,163.62a22.46,22.46,0,0,1-4.15-5.21,56.55,56.55,0,0,1-16.24-1.82,42.31,42.31,0,0,1-5.25-1.82,18.21,18.21,0,0,1-4.19-2.26,6,6,0,0,1-1.74-2.14l-.27,1.22c-.28,1.32-.84,2.82-.32,4.15a5.83,5.83,0,0,0,2.49,2.45,34.28,34.28,0,0,0,3.72,2C79.31,164,88.42,164.62,97.2,163.62Z" style="fill:#bd6c33"/></svg>