<svg xmlns="http://www.w3.org/2000/svg" viewBox="0 0 171.3 184.26"><path d="M43.19,148.62c-2.87-4.48-4.59-9.81-5.91-14.92a89.9,89.9,0,0,1-2.68-21.17s-.06,0-.07-.06c-.27-.61-2.21.55-2.55.79a6.61,6.61,0,0,0-2,2.43c-1.06,2.18-1,4.74-.93,7.11a64.28,64.28,0,0,0,2.46,15.08c1.29,4.49,3,8.63,7.13,11.21a34.59,34.59,0,0,0,8.49,4.11A22.15,22.15,0,0,1,43.19,148.62Z" style="fill:#76bcdd"/><path d="M79.63,68c0,1.6,0,3.21,0,4.81q7.19-.13,14.39-.2l3.84,0a33,33,0,0,0,4.1,0c.63-.09.77,0,1-.72a10.09,10.09,0,0,0,.48-1.71,9.39,9.39,0,0,0,0-2.8q-6.09-.39-12.18-.82l-6.81-.45a39,39,0,0,0-5.4-.2l0,.23A3.58,3.58,0,0,1,79.63,68Z" style="fill:#f7db4a"/><path d="M117.94,111c-.24-1.18-.27-2.91-1.59-3.34a19,19,0,0,0-4.27-.43q-9.85-.75-19.74-1t-20,.14c-3.29.12-6.58.27-9.87.48a35.65,35.65,0,0,0-4.37.39,10.85,10.85,0,0,0-1.85.53,5.72,5.72,0,0,1-.59.17c-.26,6.37,1,12.81,2.54,19,1.47,5.77,4,11.28,9.56,14.06a29.59,29.59,0,0,0,7.93,2.36c3.22.58,6.48,1,9.74,1.31a89.29,89.29,0,0,0,18.49.21,18.93,18.93,0,0,0,7.59-2.37,12.65,12.65,0,0,0,4.71-5.4c2.49-5,2.91-11,2.8-16.57A54.75,54.75,0,0,0,117.94,111Z" style="fill:#76bcdd"/><path d="M83,30.5c2.72-2.36,6.32-2.52,9.75-2.33s7,.81,9.81,3c2.62,2.1,3.54,5.08,3.55,8.28a1.76,1.76,0,0,1,0,1.44c.93.3,1.85.6,2.76.95,0-.1,0-.2,0-.3a.65.65,0,0,1,0-.62c.14-4.26-.11-8.91-2.73-12.43a10,10,0,0,0-5.91-3.5,48,48,0,0,0-7.72-1.25c-4.55-.34-9.59.37-13,3.73a13.3,13.3,0,0,0-3.19,5.93c-.54,1.89-.65,3.93-1.37,5.76a25.57,25.57,0,0,1,5.1-.8C79,35.72,81,32.23,83,30.5Z" style="fill:#76bcdd"/><path d="M132.7,125.12a206.44,206.44,0,0,0,2.83-33c0-5.31-.1-10.66-.63-15.94-.82-8-5.07-15.67-10.72-21.33a47.93,47.93,0,0,0-21.83-12.5,74.41,74.41,0,0,0-15-1.79l-1.7-.08a.74.74,0,0,1-.41.08,30.77,30.77,0,0,0-6.71.28A42.16,42.16,0,0,0,55.24,53.4c-6.76,7-11.07,16-13.78,25.31a115.31,115.31,0,0,0-4.34,29.9,84.91,84.91,0,0,0,4.64,30.61c1.68,4.66,3.84,9.24,7.72,12.47a29.33,29.33,0,0,0,12,5.51c10.41,2.51,21.37,2.64,32,2.26,5.52-.2,11-.46,16.55-.86a21.05,21.05,0,0,0,7.28-1.52,17.74,17.74,0,0,0,5.36-3.84c3.33-3.41,5.33-7.83,6.67-12.35A126.64,126.64,0,0,0,132.7,125.12ZM128.23,120a147.27,147.27,0,0,1-1.87,17.41c-1,5.08-3.2,9.66-7.42,12.8-3.82,2.83-8.57,4.21-13.23,4.87a86.48,86.48,0,0,1-18.27.27,157.54,157.54,0,0,1-15.93-1.69A34.25,34.25,0,0,1,58.39,149a21.29,21.29,0,0,1-8.48-11.29c-1.71-5.12-2-10.65-2.37-16-.41-6.25-.62-12.52-.57-18.79.09-11.48,1.27-23.14,6.17-33.67,8.49-18.2,26-29.08,45.64-21.42a70.43,70.43,0,0,1,14.36,7.65,34.3,34.3,0,0,1,10.37,10.54c2.86,4.89,3.68,10.57,4.28,16.12q1,9.3,1.08,18.66C128.93,107.24,128.69,113.65,128.23,120Z" style="fill:#f7db4a"/><path d="M137.2,115.5c-.67,6.4-1.6,12.77-2.9,19.06-1.56,7.59-4.05,16-9.71,21.48a20.29,20.29,0,0,0,4.92-1.3c3.53-1.49,5.69-4.37,7.31-7.73a52.25,52.25,0,0,0,3.87-11.69,47.17,47.17,0,0,0,1.13-12.48C141.63,119.62,140.2,116.48,137.2,115.5Z" style="fill:#76bcdd"/><path d="M124.63,76.55a26.36,26.36,0,0,0-6.37-13.61,46.78,46.78,0,0,0-11.6-8.69,54.89,54.89,0,0,0-14.75-6.06C73.46,44,57.58,60.33,52.66,77c-3.24,10.94-3.47,22.58-3.16,33.9.16,5.72.44,11.45,1,17.15.51,4.8,1.44,9.79,4.15,13.88,5.09,7.67,15.22,9.22,23.66,10,5.5.53,11,1,16.56,1.09a52.57,52.57,0,0,0,15.6-1.71c4.33-1.3,8.47-3.65,10.81-7.65,2.59-4.42,2.94-9.83,3.46-14.8a248.14,248.14,0,0,0,1.4-35.11A124.09,124.09,0,0,0,124.63,76.55ZM77.3,63.46A28.16,28.16,0,0,1,84,63.4l6.81.44c4.63.29,9.26.57,13.89.89a1.37,1.37,0,0,1,1.29,1,12.28,12.28,0,0,1-.94,8,2.88,2.88,0,0,1-2.87,1.5c-1.53,0-3.07,0-4.6,0-6.4,0-12.8.07-19.19,0a1.22,1.22,0,0,1-1.2-1.2l0-.86a.72.72,0,0,1-.1-.29c-.36-2.61-.34-5.24-.72-7.85A1.34,1.34,0,0,1,77.3,63.46Zm45.22,61.74c-.38,5.81-1.46,11.92-5.23,16.56s-10,6.21-15.85,6.53a112.09,112.09,0,0,1-21-1c-6.18-.84-12.94-1.93-17.81-6.17-4.3-3.74-6.17-9.43-7.35-14.82-1-4.6-5.56-20.46,1.5-22.06a32.47,32.47,0,0,1,5.12-.56q6.06-.41,12.15-.6,12.41-.39,24.82,0,5.58.21,11.14.57c1.81.12,3.63.22,5.43.41a6.53,6.53,0,0,1,3.7,1.25c1.28,1.08,1.67,2.69,2,4.25s.66,3.22.88,4.85A54.17,54.17,0,0,1,122.52,125.2Z" style="fill:#ce6163"/><path d="M121.23,109.55c-.37-1.56-.76-3.17-2-4.25a6.53,6.53,0,0,0-3.7-1.25c-1.8-.19-3.62-.29-5.43-.41q-5.57-.36-11.14-.57-12.4-.43-24.82,0-6.09.19-12.15.6a32.47,32.47,0,0,0-5.12.56c-7.06,1.6-2.5,17.46-1.5,22.06,1.18,5.39,3.05,11.08,7.35,14.82,4.87,4.24,11.63,5.33,17.81,6.17a112.09,112.09,0,0,0,21,1c5.87-.32,12-1.76,15.85-6.53s4.85-10.75,5.23-16.56a54.17,54.17,0,0,0-.41-10.8C121.89,112.77,121.6,111.16,121.23,109.55Zm-5,27.54a12.65,12.65,0,0,1-4.71,5.4,18.93,18.93,0,0,1-7.59,2.37,89.29,89.29,0,0,1-18.49-.21c-3.26-.3-6.52-.73-9.74-1.31A29.59,29.59,0,0,1,67.74,141c-5.58-2.78-8.09-8.29-9.56-14.06-1.56-6.15-2.8-12.59-2.54-19a5.72,5.72,0,0,0,.59-.17,10.85,10.85,0,0,1,1.85-.53,35.65,35.65,0,0,1,4.37-.39c3.29-.21,6.58-.36,9.87-.48q10-.35,20-.14t19.74,1a19,19,0,0,1,4.27.43c1.32.43,1.35,2.16,1.59,3.34a54.75,54.75,0,0,1,1.06,9.55C119.11,126,118.69,132.06,116.2,137.09Z" style="fill:#653331"/><path d="M123.51,66.05a34.3,34.3,0,0,0-10.37-10.54,70.43,70.43,0,0,0-14.36-7.65C79.12,40.2,61.63,51.08,53.14,69.28,48.24,79.81,47.06,91.47,47,103c0,6.27.16,12.54.57,18.79.36,5.35.66,10.88,2.37,16A21.29,21.29,0,0,0,58.39,149a34.25,34.25,0,0,0,13.12,4.67,157.54,157.54,0,0,0,15.93,1.69,86.48,86.48,0,0,0,18.27-.27c4.66-.66,9.41-2,13.23-4.87,4.22-3.14,6.43-7.72,7.42-12.8A147.27,147.27,0,0,0,128.23,120c.46-6.39.7-12.8.64-19.21q-.09-9.35-1.08-18.66C127.19,76.62,126.37,70.94,123.51,66.05Zm1.27,62.82c-.52,5-.87,10.38-3.46,14.8-2.34,4-6.48,6.35-10.81,7.65A52.57,52.57,0,0,1,94.91,153c-5.53-.07-11.06-.56-16.56-1.09-8.44-.82-18.57-2.37-23.66-10-2.71-4.09-3.64-9.08-4.15-13.88-.6-5.7-.88-11.43-1-17.15-.31-11.32-.08-23,3.16-33.9,4.92-16.64,20.8-33,39.25-28.78a54.89,54.89,0,0,1,14.75,6.06,46.78,46.78,0,0,1,11.6,8.69,26.36,26.36,0,0,1,6.37,13.61,124.09,124.09,0,0,1,1.55,17.21A248.14,248.14,0,0,1,124.78,128.87Z" style="fill:#653331"/><path d="M144.43,121.15c-.66-3.5-3.29-7.58-7-8.07.42-4.5.74-9,.9-13.51q.3-8.71-.12-17.42c-.24-5-.5-10.13-2.27-14.82a19.72,19.72,0,0,0-2.17-4.15,15.1,15.1,0,0,0-1.47-2.64,47.3,47.3,0,0,0-4.09-5.27,50.12,50.12,0,0,0-10.45-8.93A49.2,49.2,0,0,0,111.54,43a1.48,1.48,0,0,0,.3-.84c.19-4.22.2-9-2-12.76a13.76,13.76,0,0,0-9.35-6.63C92.79,21,82.66,20,77.14,27a15.68,15.68,0,0,0-2.79,5.87,15.5,15.5,0,0,0-.64,6.68s0,0,.05.08a13,13,0,0,0-1.45.6A41,41,0,0,0,59,47c-7.93,6-13.5,14.44-17.2,23.62-3.89,9.64-5.88,20.14-6.77,30.47-.26,2.92-.4,5.86-.43,8.8a1.8,1.8,0,0,0-.52,0,7.29,7.29,0,0,0-5,2.68c-3.06,3.62-2.75,8.76-2.37,13.19a65.65,65.65,0,0,0,3,15c1.44,4.4,3.66,8.21,7.64,10.74A46.19,46.19,0,0,0,44.21,155a19,19,0,0,0,8,1.75l.1,0c.57.3,1.13.63,1.73.89a56.47,56.47,0,0,0,14.3,3.8,125.41,125.41,0,0,0,17.42,1.32c5.89.07,11.76-.18,17.64-.5,5.32-.3,11-.15,15.9-2.53l.34-.19a7.93,7.93,0,0,0,1.09,0c1.17-.07,2.33-.18,3.49-.33a24.43,24.43,0,0,0,6.08-1.47,17.15,17.15,0,0,0,9-8.78,52,52,0,0,0,4.51-13.51C144.73,130.84,145.31,125.82,144.43,121.15Zm-68-87.72a13.3,13.3,0,0,1,3.19-5.93c3.38-3.36,8.42-4.07,13-3.73A48,48,0,0,1,100.32,25a10,10,0,0,1,5.91,3.5C108.85,32,109.1,36.69,109,41a.65.65,0,0,0,0,.62c0,.1,0,.2,0,.3-.91-.35-1.83-.65-2.76-.95a1.76,1.76,0,0,0,0-1.44c0-3.2-.93-6.18-3.55-8.28-2.79-2.22-6.34-2.84-9.81-3s-7,0-9.75,2.33c-2,1.73-4,5.22-2.84,7.89a25.57,25.57,0,0,0-5.1.8C75.79,37.36,75.9,35.32,76.44,33.43Zm27,6.72a64.71,64.71,0,0,0-13.6-1.75c-2.77-.1-5.56-.16-8.34,0l0-.05c.41-1.09.46-2.29.94-3.36A7.45,7.45,0,0,1,84.8,32c2.31-1.79,5.41-1.67,8.17-1.5s5.64.63,7.87,2.34A6.59,6.59,0,0,1,103.16,36,12.93,12.93,0,0,1,103.48,40.15ZM38.68,149.09c-4.09-2.58-5.84-6.72-7.13-11.21a64.28,64.28,0,0,1-2.46-15.08c-.1-2.37-.13-4.93.93-7.11a6.61,6.61,0,0,1,2-2.43c.34-.24,2.28-1.4,2.55-.79,0,0,0,0,.07.06a89.9,89.9,0,0,0,2.68,21.17c1.32,5.11,3,10.44,5.91,14.92a22.15,22.15,0,0,0,4,4.58A34.59,34.59,0,0,1,38.68,149.09Zm84,4.15a17.74,17.74,0,0,1-5.36,3.84,21.05,21.05,0,0,1-7.28,1.52c-5.51.4-11,.66-16.55.86-10.64.38-21.6.25-32-2.26a29.33,29.33,0,0,1-12-5.51c-3.88-3.23-6-7.81-7.72-12.47a84.91,84.91,0,0,1-4.64-30.61,115.31,115.31,0,0,1,4.34-29.9c2.71-9.27,7-18.31,13.78-25.31A42.16,42.16,0,0,1,78.57,40.82a30.77,30.77,0,0,1,6.71-.28.74.74,0,0,0,.41-.08l1.7.08a74.41,74.41,0,0,1,15,1.79,47.93,47.93,0,0,1,21.83,12.5c5.65,5.66,9.9,13.3,10.72,21.33.53,5.28.63,10.63.63,15.94a206.44,206.44,0,0,1-2.83,33,126.64,126.64,0,0,1-3.33,15.77C128,145.41,126,149.83,122.7,153.24Zm18-17.92A52.25,52.25,0,0,1,136.82,147c-1.62,3.36-3.78,6.24-7.31,7.73a20.29,20.29,0,0,1-4.92,1.3c5.66-5.49,8.15-13.89,9.71-21.48,1.3-6.29,2.23-12.66,2.9-19.06,3,1,4.43,4.12,4.62,7.34A47.17,47.17,0,0,1,140.69,135.32Z" style="fill:#653331"/><path d="M144.43,121.15c-.66-3.5-3.29-7.58-7-8.07.42-4.5.74-9,.9-13.51q.3-8.71-.12-17.42c-.24-5-.5-10.13-2.27-14.82a19.72,19.72,0,0,0-2.17-4.15,15.1,15.1,0,0,0-1.47-2.64,47.3,47.3,0,0,0-4.09-5.27,50.12,50.12,0,0,0-10.45-8.93A49.2,49.2,0,0,0,111.54,43a1.48,1.48,0,0,0,.3-.84c.19-4.22.2-9-2-12.76a13.76,13.76,0,0,0-9.35-6.63C92.79,21,82.66,20,77.14,27a15.68,15.68,0,0,0-2.79,5.87,15.5,15.5,0,0,0-.64,6.68s0,0,.05.08a13,13,0,0,0-1.45.6A41,41,0,0,0,59,47c-7.93,6-13.5,14.44-17.2,23.62-3.89,9.64-5.88,20.14-6.77,30.47-.26,2.92-.4,5.86-.43,8.8a1.8,1.8,0,0,0-.52,0,7.29,7.29,0,0,0-5,2.68c-3.06,3.62-2.75,8.76-2.37,13.19a65.65,65.65,0,0,0,3,15c1.44,4.4,3.66,8.21,7.64,10.74A46.19,46.19,0,0,0,44.21,155a19,19,0,0,0,8,1.75l.1,0c.57.3,1.13.63,1.73.89a56.47,56.47,0,0,0,14.3,3.8,125.41,125.41,0,0,0,17.42,1.32c5.89.07,11.76-.18,17.64-.5,5.32-.3,11-.15,15.9-2.53l.34-.19a7.93,7.93,0,0,0,1.09,0c1.17-.07,2.33-.18,3.49-.33a24.43,24.43,0,0,0,6.08-1.47,17.15,17.15,0,0,0,9-8.78,52,52,0,0,0,4.51-13.51C144.73,130.84,145.31,125.82,144.43,121.15Zm-68-87.72a13.3,13.3,0,0,1,3.19-5.93c3.38-3.36,8.42-4.07,13-3.73A48,48,0,0,1,100.32,25a10,10,0,0,1,5.91,3.5C108.85,32,109.1,36.69,109,41a.65.65,0,0,0,0,.62c0,.1,0,.2,0,.3-.91-.35-1.83-.65-2.76-.95a1.76,1.76,0,0,0,0-1.44c0-3.2-.93-6.18-3.55-8.28-2.79-2.22-6.34-2.84-9.81-3s-7,0-9.75,2.33c-2,1.73-4,5.22-2.84,7.89a25.57,25.57,0,0,0-5.1.8C75.79,37.36,75.9,35.32,76.44,33.43Zm27,6.72a64.71,64.71,0,0,0-13.6-1.75c-2.77-.1-5.56-.16-8.34,0l0-.05c.41-1.09.46-2.29.94-3.36A7.45,7.45,0,0,1,84.8,32c2.31-1.79,5.41-1.67,8.17-1.5s5.64.63,7.87,2.34A6.59,6.59,0,0,1,103.16,36,12.93,12.93,0,0,1,103.48,40.15ZM38.68,149.09c-4.09-2.58-5.84-6.72-7.13-11.21a64.28,64.28,0,0,1-2.46-15.08c-.1-2.37-.13-4.93.93-7.11a6.61,6.61,0,0,1,2-2.43c.34-.24,2.28-1.4,2.55-.79,0,0,0,0,.07.06a89.9,89.9,0,0,0,2.68,21.17c1.32,5.11,3,10.44,5.91,14.92a22.15,22.15,0,0,0,4,4.58A34.59,34.59,0,0,1,38.68,149.09Zm84,4.15a17.74,17.74,0,0,1-5.36,3.84,21.05,21.05,0,0,1-7.28,1.52c-5.51.4-11,.66-16.55.86-10.64.38-21.6.25-32-2.26a29.33,29.33,0,0,1-12-5.51c-3.88-3.23-6-7.81-7.72-12.47a84.91,84.91,0,0,1-4.64-30.61,115.31,115.31,0,0,1,4.34-29.9c2.71-9.27,7-18.31,13.78-25.31A42.16,42.16,0,0,1,78.57,40.82a30.77,30.77,0,0,1,6.71-.28.74.74,0,0,0,.41-.08l1.7.08a74.41,74.41,0,0,1,15,1.79,47.93,47.93,0,0,1,21.83,12.5c5.65,5.66,9.9,13.3,10.72,21.33.53,5.28.63,10.63.63,15.94a206.44,206.44,0,0,1-2.83,33,126.64,126.64,0,0,1-3.33,15.77C128,145.41,126,149.83,122.7,153.24Zm18-17.92A52.25,52.25,0,0,1,136.82,147c-1.62,3.36-3.78,6.24-7.31,7.73a20.29,20.29,0,0,1-4.92,1.3c5.66-5.49,8.15-13.89,9.71-21.48,1.3-6.29,2.23-12.66,2.9-19.06,3,1,4.43,4.12,4.62,7.34A47.17,47.17,0,0,1,140.69,135.32Z" style="fill:#653331"/><path d="M77.1,72.92a.72.72,0,0,0,.1.29l0,.86a1.22,1.22,0,0,0,1.2,1.2c6.39,0,12.79,0,19.19,0,1.53,0,3.07,0,4.6,0A2.88,2.88,0,0,0,105,73.7a12.28,12.28,0,0,0,.94-8,1.37,1.37,0,0,0-1.29-1c-4.63-.32-9.26-.6-13.89-.89L84,63.4a28.16,28.16,0,0,0-6.68.06,1.34,1.34,0,0,0-.92,1.61C76.76,67.68,76.74,70.31,77.1,72.92Zm7.39-6.85,6.81.45q6.09.42,12.18.82a9.39,9.39,0,0,1,0,2.8,10.09,10.09,0,0,1-.48,1.71c-.27.72-.41.63-1,.72a33,33,0,0,1-4.1,0l-3.84,0q-7.2.07-14.39.2c0-1.6,0-3.21,0-4.81a3.58,3.58,0,0,0-.51-1.94l0-.23A39,39,0,0,1,84.49,66.07Z" style="fill:#653331"/><path d="M116.46,142.69c-3.88,4-9.55,5.31-15,5.6a112.09,112.09,0,0,1-21-1c-6.18-.84-12.94-1.93-17.81-6.17-4.3-3.74-6.17-9.43-7.35-14.82-1-4.6-5.56-20.46,1.5-22.06a32.47,32.47,0,0,1,5.12-.56h0a109.37,109.37,0,0,1,.55-18.36,149.68,149.68,0,0,1,5.31-27.6c.45-1.5.94-3,1.49-4.51A45.76,45.76,0,0,0,52.66,77c-3.24,10.94-3.47,22.58-3.16,33.9.16,5.72.44,11.45,1,17.15.51,4.8,1.44,9.79,4.15,13.88,5.09,7.67,15.22,9.22,23.66,10,5.5.53,11,1,16.56,1.09a52.57,52.57,0,0,0,15.6-1.71c4.33-1.3,8.47-3.65,10.81-7.65a18.34,18.34,0,0,0,1.21-2.53Q119.51,142,116.46,142.69Z" style="fill:#c8444c"/><path d="M126.18,93.76a124.09,124.09,0,0,0-1.55-17.21,26.36,26.36,0,0,0-6.37-13.61,46.78,46.78,0,0,0-11.6-8.69q-2-1.17-4.17-2.2C109.54,57.38,115.56,63.92,119,72a59.19,59.19,0,0,1,3.92,15.81,125.27,125.27,0,0,1,.44,28.51c-.31,3.15-.74,6.37-.1,9.47a11.42,11.42,0,0,0,1.45,3.63l.06-.52A248.14,248.14,0,0,0,126.18,93.76Z" style="fill:#d88683"/><path d="M117.32,134.32a33.08,33.08,0,0,1-6.27,2.2,59.56,59.56,0,0,1-23.33,1.25c-6.42-.93-13-3.11-17.34-7.93A31,31,0,0,1,65,120.27c-1.68-4.27-3.06-8.89-2.51-13.4h0a35.65,35.65,0,0,0-4.37.39,10.85,10.85,0,0,0-1.85.53,5.72,5.72,0,0,1-.59.17c-.26,6.37,1,12.81,2.54,19,1.47,5.77,4,11.28,9.56,14.06a29.59,29.59,0,0,0,7.93,2.36c3.22.58,6.48,1,9.74,1.31a89.29,89.29,0,0,0,18.49.21,18.93,18.93,0,0,0,7.59-2.37,12.65,12.65,0,0,0,4.71-5.4A22.28,22.28,0,0,0,117.32,134.32Z" style="fill:#68a3bf"/><path d="M133,140.21c-1.63,5.86-4.09,11.68-8.37,15.83a20.29,20.29,0,0,0,4.92-1.3c3.53-1.49,5.69-4.37,7.31-7.73a50.33,50.33,0,0,0,3.48-10A29.54,29.54,0,0,1,133,140.21Z" style="fill:#68a3bf"/><path d="M47.17,153.2a22.15,22.15,0,0,1-4-4.58,46.21,46.21,0,0,1-5.11-12,24.77,24.77,0,0,1-7.54-2.71c.3,1.33.63,2.67,1,4,1.29,4.49,3,8.63,7.13,11.21A34.59,34.59,0,0,0,47.17,153.2Z" style="fill:#68a3bf"/><path d="M127.59,128.39a90.92,90.92,0,0,1-1.23,9.06c-1,5.08-3.2,9.66-7.42,12.8-3.82,2.83-8.57,4.21-13.23,4.87a86.48,86.48,0,0,1-18.27.27,157.54,157.54,0,0,1-15.93-1.69A34.25,34.25,0,0,1,58.39,149a21.29,21.29,0,0,1-8.48-11.29c-1.71-5.12-2-10.65-2.37-16-.41-6.25-.62-12.52-.57-18.79.09-11.48,1.27-23.14,6.17-33.67,3.78-8.09,9.33-14.73,16.06-18.94a29.56,29.56,0,0,1,6.6-9,42.84,42.84,0,0,0-20.56,12c-6.76,7-11.07,16-13.78,25.31a115.31,115.31,0,0,0-4.34,29.9,84.91,84.91,0,0,0,4.64,30.61c1.68,4.66,3.84,9.24,7.72,12.47a29.33,29.33,0,0,0,12,5.51c10.41,2.51,21.37,2.64,32,2.26,5.52-.2,11-.46,16.55-.86a21.05,21.05,0,0,0,7.28-1.52,17.74,17.74,0,0,0,5.36-3.84c3.33-3.41,5.33-7.83,6.67-12.35a126.64,126.64,0,0,0,3.33-15.77c.29-1.79.55-3.58.8-5.37A88.5,88.5,0,0,1,127.59,128.39Z" style="fill:#edc247"/><path d="M124.18,54.83a47.93,47.93,0,0,0-21.83-12.5A54.5,54.5,0,0,0,93.76,41,84.9,84.9,0,0,1,115,51.12c4.51,3,8.85,6.6,11.31,11.42A35.59,35.59,0,0,1,129,70.86a212.88,212.88,0,0,1,5.25,37.85c.05,1.19.1,2.38.16,3.58a191.2,191.2,0,0,0,1.11-20.19c0-5.31-.1-10.66-.63-15.94C134.08,68.13,129.83,60.49,124.18,54.83Z" style="fill:#fff287"/><path d="M102.08,28.2c-3-1.7-6.59-1.91-10-2.07a20.34,20.34,0,0,0-4.87.15C81.61,27.37,78,33,77.29,38.71c.95-.15,1.92-.25,2.88-.32C79,35.72,81,32.23,83,30.5c2.72-2.36,6.32-2.52,9.75-2.33s7,.81,9.81,3c2.62,2.1,3.54,5.08,3.55,8.28a1.76,1.76,0,0,1,0,1.44c.83.27,1.65.54,2.46.85,0-.33,0-.66,0-1C108.62,35.82,106.39,30.64,102.08,28.2Z" style="fill:#68a3bf"/><path d="M141.82,122.84c-.19-3.22-1.62-6.36-4.62-7.34-.11,1.06-.24,2.12-.36,3.18a24.39,24.39,0,0,1,4.85,10.22A39.65,39.65,0,0,0,141.82,122.84Z" style="fill:#a5d2f4"/><path d="M34.7,115.68c-.05-1.05-.08-2.1-.1-3.15,0,0-.06,0-.07-.06-.27-.61-2.21.55-2.55.79a6.61,6.61,0,0,0-2,2.43,12.52,12.52,0,0,0-1,5.6,19,19,0,0,1,2-2.53A26.83,26.83,0,0,1,34.7,115.68Z" style="fill:#a5d2f4"/><path d="M117.94,111c-.24-1.18-.27-2.91-1.59-3.34a19,19,0,0,0-4.27-.43q-9.85-.75-19.74-1t-20,.14l-2.75.12A126.73,126.73,0,0,0,96,110.33a62.21,62.21,0,0,1,10.21.81,15.66,15.66,0,0,1,8.86,4.79c1.69,2,2.63,4.52,3.94,6.79,0-.74,0-1.47,0-2.2A54.75,54.75,0,0,0,117.94,111Z" style="fill:#a5d2f4"/><path d="M114.87,112.7a6.22,6.22,0,0,0-1.24-.41c-.44,0-.9,0-1.35,0l-2.91.08c-1.79,0-3.58.09-5.37.12q-5.49.12-11,.2-11,.15-22,.12c-2,0-4,0-6,0-1,0-2.07,0-3.11,0a9.92,9.92,0,0,0-3,.26.35.35,0,0,0-.08.63,6.74,6.74,0,0,0,2.39.56c1,.11,1.93.16,2.89.18,1.83,0,3.65.06,5.47.07,3.7,0,7.4,0,11.09,0q11,0,22-.23c2,0,4-.08,6-.12l2.78-.07a3.89,3.89,0,0,0-.16.38,4.54,4.54,0,0,0-.27,1.46,5.52,5.52,0,0,0,.7,2.84.63.63,0,0,0,1,.13,5.32,5.32,0,0,0,.88-4.9,6.74,6.74,0,0,0,1.26-.44A.47.47,0,0,0,114.87,112.7Z" style="fill:#ce6163"/><path d="M133.17,104.1s0,0,0,0a4.32,4.32,0,0,0,.17-.94c0-.45,0-.9,0-1.35,0-.9-.07-1.79-.1-2.69-.06-1.72-.15-3.44-.22-5.16-.16-3.52-.31-7-.46-10.55-.27-6-.3-12.38-2.87-18a25.54,25.54,0,0,0-5.38-7.26,65.87,65.87,0,0,0-6.67-5.82,50,50,0,0,0-15.26-8.09A47.26,47.26,0,0,0,91.78,42.3c-1.86-.15-3.72-.21-5.59-.21-.94,0-1.87,0-2.8,0s-2,.19-3,.26a.23.23,0,0,0-.13.07A22.69,22.69,0,0,0,75,43.53a36.43,36.43,0,0,0-6.78,2.95A41.06,41.06,0,0,0,56.76,56.1c-6.86,8.24-10.7,18.55-12.68,29C43.45,88.35,43,91.65,42.66,95c-.17,1.65-.32,3.29-.42,4.94s-.06,3.37-.06,5.06c0,.33.46.31.5,0,.18-1.43.45-2.85.6-4.3s.3-2.87.46-4.3c.32-2.91.71-5.82,1.22-8.7A81.42,81.42,0,0,1,49.2,71.93C52.82,62.62,58.76,54,67.32,48.66a36,36,0,0,1,7.32-3.51c2.56-.87,5.22-1.29,7.84-1.94a.48.48,0,0,0,.17-.1c.89.09,1.78.16,2.68.19,1.65.06,3.3.17,5,.3a55.33,55.33,0,0,1,9.49,1.51A47.39,47.39,0,0,1,115,52.38a61.61,61.61,0,0,1,6.56,5.39,31,31,0,0,1,5.81,6.76c3,5.12,3.16,11.29,3.43,17.06.18,3.81.35,7.63.53,11.44.09,1.87.16,3.74.26,5.61.05,1,.11,2,.16,2.92,0,.45,0,.9.08,1.34a4.41,4.41,0,0,0,.11.65.62.62,0,0,0-.24-.08c-.64,0-.77.82-.9,1.29a8.7,8.7,0,0,0-.27,1.51,3.47,3.47,0,0,0,.84,2.76.56.56,0,0,0,.79,0A4.81,4.81,0,0,0,133.17,104.1Z" style="fill:#ce6163"/></svg>