<svg id="Arte" xmlns="http://www.w3.org/2000/svg" viewBox="0 0 150 150"><defs><style>.cls-1{fill:#fff;}.cls-2{fill:#3873ff;}.cls-3{fill:#ed4526;}</style></defs><title>Mesa de trabajo 3 copia 2</title><g id="Vocabulario"><path class="cls-1" d="M8.73,43.47H141.27a66.11,66.11,0,0,1-66.11,66.11h-.32A66.11,66.11,0,0,1,8.73,43.48Z"/><path class="cls-2" d="M33.49,75.23v.2c6.8.71,11,6.95,11,16.51,0,11.68-5.28,17.92-15.29,17.92H21V42.62h7c10,0,15,5.73,15,17C43,68.39,39.48,74,33.49,75.23Zm-7.77-28V73.12h1.87c7.6,0,10.73-3.73,10.73-13,0-9.56-2.77-12.88-10.55-12.88Zm0,30.5v27.38h2.5c8.49,0,11.71-3.72,11.71-13.69,0-9.56-3.58-13.69-11.71-13.69Z"/><path class="cls-2" d="M50.74,109.86V42.62h4.92V105H69.43v4.83Z"/><path class="cls-2" d="M99.19,109.86H94.36L91.24,88.62H79.53L76.4,109.86H71.75L82.3,42.62h6.34ZM85.52,50.17h-.27l-5,34H90.52Z"/><path class="cls-2" d="M109.29,78.25v31.61h-4.91V42.62h4.91v30.8h15.29V42.62h4.91v67.24h-4.91V78.25Z"/><path class="cls-3" d="M146.18,43.47,106,12.81a18.06,18.06,0,0,0-22.87.77L75,20.7l-8.13-7.12A18.06,18.06,0,0,0,44,12.81L3.82,43.47H49a24.49,24.49,0,0,1,12.51,3.45l.94.57a24.41,24.41,0,0,0,25.11-.05L88.3,47a24.46,24.46,0,0,1,12.6-3.51h45.28Z"/><path class="cls-3" d="M141.27,43.47h0a66.11,66.11,0,0,1-66.11,66.11h-.32A66.11,66.11,0,0,1,8.73,43.48H3.82V69.71A71.18,71.18,0,0,0,75,140.9h0a71.18,71.18,0,0,0,71.18-71.19V43.47Z"/></g></svg>