<svg xmlns="http://www.w3.org/2000/svg" viewBox="0 0 525.4 1080"><rect y="1.32" width="1920" height="1078.66" style="fill:#3873ff"/><rect y="1.32" width="410.05" height="44.95" style="fill:#0000a6"/><rect x="410.05" y="46.26" width="550.05" height="44.95" style="fill:#0000a6"/><rect x="410.05" y="226.04" width="550.05" height="44.95" style="fill:#0000a6"/><rect x="481.06" y="360.88" width="268.04" height="44.95" style="fill:#0000a6"/><rect y="540.66" width="185.1" height="44.95" style="fill:#0000a6"/><rect y="181.1" width="185.1" height="44.95" style="fill:#0000a6"/><rect y="91.21" width="185.1" height="44.95" style="fill:#0000a6"/><rect y="270.99" width="410.05" height="44.95" style="fill:#0000a6"/><rect y="900.22" width="296.11" height="44.95" style="fill:#0000a6"/><rect x="296.11" y="675.49" width="370.05" height="44.95" style="fill:#0000a6"/><rect y="675.49" width="185.03" height="44.95" style="fill:#0000a6"/><rect x="296.11" y="945.16" width="253.84" height="44.95" style="fill:#0000a6"/><rect x="296.11" y="855.27" width="253.84" height="44.95" style="fill:#0000a6"/><rect x="185.1" y="136.15" width="775.01" height="44.95" style="fill:#0000a6"/><rect y="810.33" width="302.07" height="44.95" style="fill:#0000a6"/><rect x="185.1" y="720.44" width="111.01" height="44.95" style="fill:#0000a6"/><rect x="199.02" y="990.11" width="97.09" height="44.95" style="fill:#0000a6"/><rect x="296.11" y="1035.05" width="97.09" height="44.95" style="fill:#0000a6"/><rect y="1035.05" width="196.6" height="44.95" style="fill:#0000a6"/><rect x="410.05" y="315.93" width="71.01" height="44.95" style="fill:#0000a6"/><rect x="185.1" y="585.6" width="481.06" height="44.95" style="fill:#0000a6"/><rect x="185.1" y="495.71" width="481.06" height="44.95" style="fill:#0000a6"/><rect y="405.82" width="481.06" height="44.95" style="fill:#0000a6"/></svg>