<svg id="Arte" xmlns="http://www.w3.org/2000/svg" viewBox="0 0 150 150"><defs><style>.cls-1{fill:#ff94b2;}.cls-2{fill:#3873ff;}.cls-3{fill:none;stroke:#3873ff;stroke-linecap:round;stroke-miterlimit:10;stroke-width:11.19px;}.cls-4{fill:#ed4526;}</style></defs><title>Mesa de trabajo 3 copia 3</title><g id="Escucha"><circle class="cls-1" cx="68.65" cy="41.79" r="34.59"/><circle class="cls-2" cx="85.95" cy="106.47" r="17.3"/><circle class="cls-1" cx="85.95" cy="106.47" r="17.3"/><polygon class="cls-1" points="37.78 57.4 70.51 114.28 103.25 106.47 103.25 41.79 37.78 57.4"/><path class="cls-3" d="M100.07,116A17.21,17.21,0,0,1,85.81,142.8"/><circle class="cls-1" cx="85.95" cy="106.47" r="17.3"/><path class="cls-4" d="M68.32,19.39a23.62,23.62,0,0,0,.33,47.23h.11A8.26,8.26,0,0,1,74.61,69h0a8.77,8.77,0,0,1,2.57,6.2v1.12a8.77,8.77,0,0,1-2.57,6.21h0A8.77,8.77,0,0,0,72,88.77h0a9.06,9.06,0,0,0,9.06,9h2.12a9,9,0,0,0,9-9V43A23.61,23.61,0,0,0,68.32,19.39Z"/><path class="cls-3" d="M85.81,142.8a17.21,17.21,0,1,1,0-34.41"/></g></svg>