<svg id="Arte" xmlns="http://www.w3.org/2000/svg" viewBox="0 0 150 150"><defs><style>.cls-1{fill:#ff94b2;}.cls-2{fill:#0000a6;}.cls-3{fill:#fff;}</style></defs><title>Mesa de trabajo 3 copia</title><g id="Pensamiento"><path class="cls-1" d="M113.81,79.94a17.39,17.39,0,0,0,.75-5.08A17.66,17.66,0,0,0,99.93,57.47a17.67,17.67,0,0,0-26.79-9.24,17.66,17.66,0,0,0-26.53,8.51A17.65,17.65,0,0,0,32.09,80a17.66,17.66,0,1,0,20,29.08,17.64,17.64,0,0,0,20.93,0,17.58,17.58,0,0,0,10.47,3.44,17.79,17.79,0,0,0,2.55-.19A10.17,10.17,0,0,1,96.1,122.53v16.33h7.49V112.53l.83,0a17.66,17.66,0,0,0,9.39-32.61Z"/><polygon class="cls-2" points="66.84 62.59 71.36 84.5 76.96 84.5 81.49 62.59 66.84 62.59"/><circle class="cls-2" cx="74.16" cy="93.39" r="5.51"/><rect class="cls-3" x="134.62" y="49.22" width="7.64" height="18.03" transform="translate(119.65 -90.77) rotate(60)"/><rect class="cls-3" x="108.6" y="21.84" width="7.64" height="17.3" transform="translate(30.31 -52.13) rotate(30)"/><rect class="cls-3" x="72.02" y="11.14" width="7.64" height="17.59"/><rect class="cls-3" x="35.02" y="20.16" width="7.64" height="17.44" transform="translate(-9.24 23.29) rotate(-30)"/><rect class="cls-3" x="7.31" y="46.57" width="7.64" height="17.02" transform="translate(-42.14 37.18) rotate(-60)"/></g></svg>