<svg id="Capa_1" data-name="Capa 1" xmlns="http://www.w3.org/2000/svg" viewBox="0 0 300 76"><defs><style>.cls-1{fill:#fff;}</style></defs><title>Mesa de trabajo 1</title><g id="Logos"><polygon class="cls-1" points="8.56 13.59 8.45 13.59 7.02 6.16 3 6.16 3 24.55 6.39 24.55 6.39 16.29 6.3 12.76 6.41 12.76 7.65 19.67 9.3 19.67 10.52 12.76 10.63 12.76 10.57 16.29 10.57 24.55 13.96 24.55 13.96 6.16 10.05 6.16 8.56 13.59"/><path class="cls-1" d="M24.91,19V6.16H21.23V19.51c0,1.65-.33,2.17-1.08,2.17s-1.1-.52-1.1-2.17V6.16H15.36V19c0,3.72,1.63,5.67,4.79,5.67S24.91,22.76,24.91,19Z"/><path class="cls-1" d="M30.28,24.71a4.34,4.34,0,0,0,3.31-1.35,4.9,4.9,0,0,0,1.29-3.49,6,6,0,0,0-.66-2.73,15.36,15.36,0,0,0-2.64-3.44,11.61,11.61,0,0,1-1.74-2,2.54,2.54,0,0,1-.38-1.26c0-.91.41-1.49,1.1-1.49.85,0,1.24,1,1.13,2.95l3.08-.61C34.88,8,33.31,6,30.53,6A4.32,4.32,0,0,0,27.2,7.34a4.76,4.76,0,0,0-1.27,3.44,5.67,5.67,0,0,0,.61,2.56,15.07,15.07,0,0,0,2.5,3.2,10.53,10.53,0,0,1,1.85,2.23,2.79,2.79,0,0,1,.44,1.45c0,1-.39,1.52-1.13,1.52-1,0-1.46-1.29-1.27-3.36L25.8,19C25.55,22.45,27.34,24.71,30.28,24.71Z"/><polygon class="cls-1" points="43.28 21.49 39.53 21.49 39.53 16.7 42.53 16.7 42.53 13.73 39.53 13.73 39.53 9.21 43.28 9.21 43.28 6.16 35.87 6.16 35.87 24.55 43.28 24.55 43.28 21.49"/><path class="cls-1" d="M49,24.71c3.39,0,5-3.11,5-9.36S52.36,6,49,6,44,9.1,44,15.35,45.65,24.71,49,24.71ZM48,10.34c.19-.85.52-1.29,1-1.29s.77.44,1,1.29a28.53,28.53,0,0,1,.27,5,28.53,28.53,0,0,1-.27,5c-.2.86-.5,1.3-1,1.3s-.8-.44-1-1.3a28.53,28.53,0,0,1-.27-5A28.53,28.53,0,0,1,48,10.34Z"/><path class="cls-1" d="M59.25,24.71a4.31,4.31,0,0,0,3.3-1.35,4.9,4.9,0,0,0,1.29-3.49,6,6,0,0,0-.66-2.73,15.36,15.36,0,0,0-2.64-3.44,11.61,11.61,0,0,1-1.74-2,2.64,2.64,0,0,1-.38-1.26c0-.91.41-1.49,1.1-1.49.85,0,1.24,1,1.13,2.95l3.08-.61C63.84,8,62.27,6,59.49,6a4.35,4.35,0,0,0-3.33,1.35,4.76,4.76,0,0,0-1.26,3.44,5.66,5.66,0,0,0,.6,2.56A14.86,14.86,0,0,0,58,16.54a10.4,10.4,0,0,1,1.84,2.23,2.79,2.79,0,0,1,.44,1.45c0,1-.38,1.52-1.13,1.52-1,0-1.46-1.29-1.26-3.36L54.76,19C54.51,22.45,56.3,24.71,59.25,24.71Z"/><path class="cls-1" d="M34.66,32.36c0-3.94-1.73-5.84-5.25-5.84H25.36V44.91H29V38.25h.44C33,38.25,34.66,36.35,34.66,32.36ZM29.3,35.27H29V29.52h.33c1.23,0,1.73.77,1.73,2.84S30.53,35.27,29.3,35.27Z"/><path class="cls-1" d="M36.62,26.52,34,44.91h3.36l.47-4.24h2.29l.46,4.24h3.5L41.46,26.52Zm1.51,11.37.77-7.16H39l.8,7.16Z"/><path class="cls-1" d="M48.65,37.7H49c.8,0,1.15.41,1.35,1.48l.33,3.75a5.65,5.65,0,0,0,.49,2H55a5.13,5.13,0,0,1-.55-2.07L54,39.05a3,3,0,0,0-2.06-2.79v0c1.65-.47,2.72-2.12,2.72-4.41,0-3.52-1.73-5.28-5.15-5.28H45V44.91h3.66Zm0-8.18H49c1.35,0,1.87.61,1.87,2.7s-.52,2.7-1.87,2.7h-.36Z"/><path class="cls-1" d="M57.85,26.52,55.23,44.91h3.36l.47-4.24h2.28l.47,4.24h3.5L62.69,26.52Zm1.51,11.37.77-7.16h.11l.8,7.16Z"/><polygon class="cls-1" points="37.34 65.27 44.75 65.27 44.75 62.22 41 62.22 41 57.42 44 57.42 44 54.45 41 54.45 41 49.94 44.75 49.94 44.75 46.88 37.34 46.88 37.34 65.27"/><polygon class="cls-1" points="52.18 46.88 50.69 58.83 50.58 58.83 49.15 46.88 45.41 46.88 48.71 65.27 52.56 65.27 55.84 46.88 52.18 46.88"/><path class="cls-1" d="M57.69,46.88,55.07,65.27h3.36L58.9,61h2.28l.47,4.24h3.5L62.53,46.88ZM59.2,58.25,60,51.09h.11l.8,7.16Z"/><path class="cls-1" d="M75.47,63.21l-.41-3.8A3,3,0,0,0,73,56.63v-.06c1.65-.47,2.73-2.12,2.73-4.4,0-3.53-1.74-5.29-5.15-5.29H66.05V65.27h3.67V58.06h.35c.8,0,1.16.41,1.35,1.48l.33,3.75a5.61,5.61,0,0,0,.5,2H76A5,5,0,0,1,75.47,63.21Zm-5.4-7.93h-.35v-5.4h.35c1.35,0,1.88.61,1.88,2.7S71.42,55.28,70.07,55.28Z"/><polygon class="cls-1" points="34.81 46.9 31.1 46.9 31.1 71.83 31.1 71.85 38.51 71.83 38.51 68.77 34.81 68.77 34.81 46.9"/><polygon class="cls-1" points="25.32 59.34 18.02 66.63 18.02 66.63 18.01 66.65 23.26 71.87 25.42 69.71 22.8 67.09 29.02 60.88 29.02 46.88 25.32 46.88 25.32 59.34"/><path class="cls-1" d="M109.63,65.19h-8v-.9l1-.07a4.39,4.39,0,0,0,.9-.15,1.27,1.27,0,0,0,.61-.45,1.46,1.46,0,0,0,.19-.79V49.88a1.78,1.78,0,0,0-.14-.74,1.17,1.17,0,0,0-.66-.5,7,7,0,0,0-1-.28,6.35,6.35,0,0,0-.94-.16v-.89h8v.89a7.43,7.43,0,0,0-.93.1,5.26,5.26,0,0,0-.94.21,1,1,0,0,0-.65.49,1.68,1.68,0,0,0-.16.75V62.69a1.47,1.47,0,0,0,.18.74,1.27,1.27,0,0,0,.63.51,5.36,5.36,0,0,0,.86.22,6.49,6.49,0,0,0,1,.13Z"/><path class="cls-1" d="M119.74,65.62a7.69,7.69,0,0,1-3.06-.63,8,8,0,0,1-2.6-1.82,9,9,0,0,1-1.79-2.89,10.66,10.66,0,0,1-.67-3.86,10.89,10.89,0,0,1,.66-3.88,9.16,9.16,0,0,1,1.81-3,7.91,7.91,0,0,1,2.71-1.93,8.3,8.3,0,0,1,3.33-.68,8.15,8.15,0,0,1,4.43,1.25l.52-.86h1l.11,6.37h-1a16,16,0,0,0-.61-2,7.54,7.54,0,0,0-.94-1.84,4.7,4.7,0,0,0-1.43-1.35,3.75,3.75,0,0,0-1.9-.48,4.91,4.91,0,0,0-2.28.54,5.18,5.18,0,0,0-1.81,1.6,7.91,7.91,0,0,0-1.15,2.6,13.66,13.66,0,0,0-.41,3.52,10.74,10.74,0,0,0,.43,3.14,8,8,0,0,0,1.24,2.52,6.1,6.1,0,0,0,1.91,1.68,5,5,0,0,0,2.46.6,5.4,5.4,0,0,0,1.87-.32A5,5,0,0,0,124,63a6.3,6.3,0,0,0,1.1-1.26,6.75,6.75,0,0,0,.78-1.54l1,.46a7.08,7.08,0,0,1-7.13,4.94"/><path class="cls-1" d="M141,62.1a8.22,8.22,0,0,0,1-2.6,14.55,14.55,0,0,0,.32-3.23,14.79,14.79,0,0,0-.36-3.38,8.45,8.45,0,0,0-1.05-2.62,5,5,0,0,0-1.74-1.67,4.69,4.69,0,0,0-2.39-.6,4.61,4.61,0,0,0-2.57.69,5.43,5.43,0,0,0-1.73,1.86,9,9,0,0,0-.94,2.59,15.76,15.76,0,0,0-.3,3.13,14.86,14.86,0,0,0,.32,3.27,8.38,8.38,0,0,0,1,2.6,5.06,5.06,0,0,0,1.71,1.73,4.65,4.65,0,0,0,2.47.62,4.73,4.73,0,0,0,2.43-.63A4.87,4.87,0,0,0,141,62.1m1.88-12.67a8.64,8.64,0,0,1,1.85,3,10.7,10.7,0,0,1,.67,3.87,10.53,10.53,0,0,1-.68,3.86,8.58,8.58,0,0,1-1.89,3,8.33,8.33,0,0,1-6,2.52,8.58,8.58,0,0,1-3.45-.7,8.14,8.14,0,0,1-2.71-2,8.71,8.71,0,0,1-1.78-3,10.45,10.45,0,0,1-.65-3.73,10.3,10.3,0,0,1,.68-3.89,9.06,9.06,0,0,1,1.87-3,7.91,7.91,0,0,1,2.76-1.89,8.59,8.59,0,0,1,6.63,0,7.85,7.85,0,0,1,2.72,1.88"/><path class="cls-1" d="M163.88,48.71V65.19h2.83V47.31h-3c-3.26,3.13-5.56,5.49-7.22,7.36-3.35,3.78-3.83,5.43-3.83,7.26a3.92,3.92,0,0,0,4,3.69,4.49,4.49,0,0,0,4.83-4.6c0-2.46-1.3-5-10.11-13.71h-5.28v.89c1.31,0,2.65.54,2.66,2.81v9.15c0,2.28-.17,2.88-.66,3.43a3.23,3.23,0,0,1-2.11.7v.9h6.24v-.9a2.41,2.41,0,0,1-2-.79c-.29-.38-.43-.92-.43-3.52V49.58c8.28,7.54,9.43,10.45,9.43,12.16a2.63,2.63,0,0,1-2.71,2.85,2.68,2.68,0,0,1-2.77-2.85c0-2,1.52-4.91,10.17-13"/><path class="cls-1" d="M190.75,58.38a1.15,1.15,0,0,0,.66.17,1,1,0,0,0,.69-.21.6.6,0,0,0,.24-.48.46.46,0,0,0-.18-.4,1.6,1.6,0,0,0-.59-.24,2.7,2.7,0,0,1-.44-.12c-.08,0-.12-.07-.12-.13s.12-.17.37-.17.34.08.38.25l.51-.09a.72.72,0,0,0-.28-.41,1.15,1.15,0,0,0-.62-.13,1,1,0,0,0-.65.18.56.56,0,0,0-.21.44.52.52,0,0,0,.24.46,2.74,2.74,0,0,0,.83.26.39.39,0,0,1,.17.07.14.14,0,0,1,.05.1.18.18,0,0,1-.11.17.55.55,0,0,1-.28.06.39.39,0,0,1-.43-.32l-.55.08a.83.83,0,0,0,.32.46M188.81,57a.46.46,0,0,1,.7,0,.65.65,0,0,1,.15.46.64.64,0,0,1-.15.46.45.45,0,0,1-.7,0,.63.63,0,0,1-.14-.46.65.65,0,0,1,.14-.46m-.57,1a.93.93,0,0,0,.39.37,1.25,1.25,0,0,0,.53.13,1,1,0,0,0,.75-.31,1.13,1.13,0,0,0,0-1.52,1,1,0,0,0-.76-.3,1.08,1.08,0,0,0-.54.13,1,1,0,0,0-.38.38,1.21,1.21,0,0,0-.13.52,1.33,1.33,0,0,0,.13.6m-1.77-.75h0a.45.45,0,0,1,.12-.33.35.35,0,0,1,.29-.13.38.38,0,0,1,.28.12.58.58,0,0,1,.12.35Zm.43.84a.4.4,0,0,1-.31-.13.62.62,0,0,1-.13-.38h1.35v-.05a1.26,1.26,0,0,0-.26-.87.89.89,0,0,0-.7-.29.84.84,0,0,0-.67.29,1.27,1.27,0,0,0,0,1.55.93.93,0,0,0,.73.29.86.86,0,0,0,.88-.61l-.53-.09a.35.35,0,0,1-.35.29m-2.86.24a1.15,1.15,0,0,0,.66.17,1,1,0,0,0,.69-.21.62.62,0,0,0,.23-.48.49.49,0,0,0-.17-.4,1.75,1.75,0,0,0-.6-.24,2.51,2.51,0,0,1-.43-.12c-.08,0-.13-.07-.13-.13s.13-.17.37-.17.34.08.38.25l.51-.09a.68.68,0,0,0-.28-.41,1.12,1.12,0,0,0-.62-.13,1,1,0,0,0-.65.18.56.56,0,0,0-.21.44.51.51,0,0,0,.25.46,2.64,2.64,0,0,0,.82.26.39.39,0,0,1,.18.07.13.13,0,0,1,0,.1.18.18,0,0,1-.1.17.58.58,0,0,1-.28.06.4.4,0,0,1-.44-.32l-.54.08a.78.78,0,0,0,.32.46m-.68.12v-2h-.55v.86a2.89,2.89,0,0,1,0,.55.4.4,0,0,1-.15.19.45.45,0,0,1-.25.07.39.39,0,0,1-.2-.05.31.31,0,0,1-.11-.16,2.44,2.44,0,0,1,0-.52v-.94h-.54v1.29a1.1,1.1,0,0,0,.08.45.58.58,0,0,0,.23.26.75.75,0,0,0,.37.09.86.86,0,0,0,.38-.1.83.83,0,0,0,.3-.26v.31Zm-5.35,0h.54v-1a1.31,1.31,0,0,1,0-.42.3.3,0,0,1,.14-.19.34.34,0,0,1,.22-.07.24.24,0,0,1,.16,0,.25.25,0,0,1,.09.13,1.46,1.46,0,0,1,0,.38V58.5h.54v-1a1.4,1.4,0,0,1,.05-.42.33.33,0,0,1,.14-.2.31.31,0,0,1,.21-.07.26.26,0,0,1,.21.09.74.74,0,0,1,.08.42V58.5H181V57.2a1.12,1.12,0,0,0-.08-.48.56.56,0,0,0-.24-.22.78.78,0,0,0-.35-.08.8.8,0,0,0-.62.32.61.61,0,0,0-.57-.32.82.82,0,0,0-.64.32v-.28H178Zm-2.83-1.2h0a.45.45,0,0,1,.12-.33.35.35,0,0,1,.29-.13.38.38,0,0,1,.28.12.58.58,0,0,1,.12.35Zm.44.84a.42.42,0,0,1-.32-.13.62.62,0,0,1-.13-.38h1.35v-.05a1.31,1.31,0,0,0-.25-.87.93.93,0,0,0-.71-.29.85.85,0,0,0-.67.29,1.27,1.27,0,0,0,0,1.55.93.93,0,0,0,.73.29.85.85,0,0,0,.88-.61l-.53-.09a.35.35,0,0,1-.34.29M172.93,57a.42.42,0,0,1,.64,0,.76.76,0,0,1,.13.51.69.69,0,0,1-.13.47.42.42,0,0,1-.32.16.44.44,0,0,1-.33-.16.9.9,0,0,1-.12-.53.65.65,0,0,1,.13-.45m1.3-1.29h-.53v1a.76.76,0,0,0-.59-.28.8.8,0,0,0-.62.27,1.14,1.14,0,0,0-.24.78,1.12,1.12,0,0,0,.25.79.76.76,0,0,0,.6.29.72.72,0,0,0,.34-.09.89.89,0,0,0,.29-.26v.3h.5Z"/><path class="cls-1" d="M196.09,51.48h-.53v2.8h.53Zm-1.58,1.93a.81.81,0,0,1,0,.28.26.26,0,0,1-.08.13.42.42,0,0,1-.14.09.39.39,0,0,1-.18,0,.3.3,0,0,1-.21-.08.27.27,0,0,1-.09-.2.24.24,0,0,1,.11-.19.89.89,0,0,1,.29-.09l.33-.08Zm-.59-.74a.62.62,0,0,1,.51,0,.28.28,0,0,1,.08.22V53a3.44,3.44,0,0,1-.52.13,1.47,1.47,0,0,0-.43.13.45.45,0,0,0-.23.2.53.53,0,0,0-.08.31.57.57,0,0,0,.18.43.65.65,0,0,0,.49.17.86.86,0,0,0,.63-.27.23.23,0,0,1,0,.1l0,.12h.53a1,1,0,0,1-.09-.27,1.79,1.79,0,0,1,0-.39V53a1,1,0,0,0-.07-.48.55.55,0,0,0-.25-.22,1.28,1.28,0,0,0-.54-.08,1,1,0,0,0-.6.14.79.79,0,0,0-.28.43l.49.09a.44.44,0,0,1,.13-.2m-1.07.35a1.6,1.6,0,0,0,0-.36.6.6,0,0,0-.1-.23.47.47,0,0,0-.22-.16.88.88,0,0,0-.33-.06.81.81,0,0,0-.67.34v-.3H191v2h.54v-.92a1.62,1.62,0,0,1,0-.46.41.41,0,0,1,.15-.21.45.45,0,0,1,.25-.07.36.36,0,0,1,.19.05.33.33,0,0,1,.11.15,1.57,1.57,0,0,1,0,.42v1h.53Zm-3.65-.21a.45.45,0,0,1,.7,0,.64.64,0,0,1,.15.46.65.65,0,0,1-.15.46.46.46,0,0,1-.7,0,.65.65,0,0,1-.15-.46.64.64,0,0,1,.15-.46m-.57,1a.82.82,0,0,0,.39.37,1.12,1.12,0,0,0,.53.13,1,1,0,0,0,.75-.3,1.06,1.06,0,0,0,.3-.77,1,1,0,0,0-.3-.75,1,1,0,0,0-.75-.3,1.08,1.08,0,0,0-.54.13.82.82,0,0,0-.38.38,1.08,1.08,0,0,0-.13.52,1.2,1.2,0,0,0,.13.59m-.54-1.58h-.54v2h.54Zm0-.77h-.54V52h.54Zm-1.25.88a1,1,0,0,0-.59-.15.94.94,0,0,0-.72.28,1.06,1.06,0,0,0-.27.78,1.09,1.09,0,0,0,.27.78.92.92,0,0,0,.71.28.86.86,0,0,0,.94-.74l-.53-.09a.49.49,0,0,1-.13.3.37.37,0,0,1-.26.09.39.39,0,0,1-.32-.15.83.83,0,0,1-.12-.51.69.69,0,0,1,.12-.46.37.37,0,0,1,.32-.14.36.36,0,0,1,.24.08.35.35,0,0,1,.13.24l.53-.1a.92.92,0,0,0-.32-.49m-2.49,1a.81.81,0,0,1,0,.28.35.35,0,0,1-.08.13.38.38,0,0,1-.15.09.36.36,0,0,1-.39,0,.3.3,0,0,1-.08-.2.24.24,0,0,1,.11-.19.89.89,0,0,1,.29-.09l.33-.08Zm-.59-.74a.45.45,0,0,1,.22-.05.5.5,0,0,1,.29.06.28.28,0,0,1,.08.22V53a3.44,3.44,0,0,1-.52.13,1.55,1.55,0,0,0-.44.13.47.47,0,0,0-.22.2.54.54,0,0,0-.09.31.57.57,0,0,0,.18.43.68.68,0,0,0,.5.17.9.9,0,0,0,.63-.27l0,.1a.83.83,0,0,0,0,.12H185a1,1,0,0,1-.1-.27,3.25,3.25,0,0,1,0-.39V53a1,1,0,0,0-.08-.48.52.52,0,0,0-.24-.22,1.28,1.28,0,0,0-.54-.08,1,1,0,0,0-.6.14.74.74,0,0,0-.28.43l.48.09a.45.45,0,0,1,.14-.2m-1.07.35a1.6,1.6,0,0,0,0-.36.6.6,0,0,0-.1-.23.52.52,0,0,0-.22-.16.88.88,0,0,0-.33-.06.81.81,0,0,0-.67.34v-.3h-.5v2h.54v-.92a1.62,1.62,0,0,1,0-.46.36.36,0,0,1,.15-.21.45.45,0,0,1,.25-.07.38.38,0,0,1,.19.05.33.33,0,0,1,.11.15,1.74,1.74,0,0,1,0,.42v1h.54Zm-2.88.64a3.22,3.22,0,0,1,0-.68.39.39,0,0,1,.13-.23.29.29,0,0,1,.19-.06.52.52,0,0,1,.25.08l.17-.46a.67.67,0,0,0-.35-.1.48.48,0,0,0-.24.06.72.72,0,0,0-.23.27v-.29h-.5v2h.54Zm-2.29-.57h0a.49.49,0,0,1,.12-.34.37.37,0,0,1,.29-.12.38.38,0,0,1,.28.12.58.58,0,0,1,.12.35Zm.44.84a.43.43,0,0,1-.32-.14.59.59,0,0,1-.13-.37h1.35v-.05a1.27,1.27,0,0,0-.25-.87.89.89,0,0,0-.71-.29.86.86,0,0,0-.67.28,1.28,1.28,0,0,0,0,1.56.92.92,0,0,0,.73.28.85.85,0,0,0,.88-.6l-.53-.09a.35.35,0,0,1-.34.29m-1.59-1.68v-.72l-.54.31v.41h-.25v.43h.25v.89a1.71,1.71,0,0,0,0,.49.32.32,0,0,0,.18.2.56.56,0,0,0,.3.07.93.93,0,0,0,.42-.08l0-.42a.59.59,0,0,1-.22.05l-.09,0-.05-.07s0-.13,0-.29v-.82h.37v-.43Zm-1.09.77a1.6,1.6,0,0,0,0-.36.6.6,0,0,0-.1-.23.52.52,0,0,0-.22-.16.88.88,0,0,0-.33-.06.8.8,0,0,0-.67.34v-.3h-.5v2H174v-.92a1.62,1.62,0,0,1,0-.46.36.36,0,0,1,.15-.21.43.43,0,0,1,.25-.07.38.38,0,0,1,.19.05.33.33,0,0,1,.11.15,1.74,1.74,0,0,1,0,.42v1h.54Zm-2.37-.77h-.54v2h.54Zm0-.77h-.54V52h.54Z"/><path class="cls-1" d="M185.27,48.59a.46.46,0,0,1,.7,0,.65.65,0,0,1,.15.46.68.68,0,0,1-.15.47.46.46,0,0,1-.7,0,.65.65,0,0,1-.15-.46.66.66,0,0,1,.15-.47m-.57,1a.87.87,0,0,0,.39.37,1.09,1.09,0,0,0,.53.13,1,1,0,0,0,.75-.31,1.11,1.11,0,0,0,0-1.52,1,1,0,0,0-.75-.3,1.2,1.2,0,0,0-.54.13.89.89,0,0,0-.38.39,1,1,0,0,0-.13.51,1.21,1.21,0,0,0,.13.6M183.61,48V50a2,2,0,0,1,0,.3.18.18,0,0,1-.07.08.21.21,0,0,1-.14,0l-.13,0-.1.46a1.36,1.36,0,0,0,.38.06.7.7,0,0,0,.37-.09.44.44,0,0,0,.19-.25,1.84,1.84,0,0,0,.05-.55V48Zm.54-.77h-.54v.5h.54Zm-2.28,1.62v0a.46.46,0,0,1,.12-.33.38.38,0,0,1,.29-.13.35.35,0,0,1,.28.13.56.56,0,0,1,.12.35Zm.44.83a.41.41,0,0,1-.32-.13.59.59,0,0,1-.13-.37h1.35v-.05a1.22,1.22,0,0,0-.26-.87.94.94,0,0,0-1.37,0,1.1,1.1,0,0,0-.27.79,1.12,1.12,0,0,0,.26.77,1,1,0,0,0,.73.28.85.85,0,0,0,.88-.61l-.53-.09c-.06.2-.17.29-.34.29m-2.87.24a1.15,1.15,0,0,0,.66.17,1.07,1.07,0,0,0,.69-.2.65.65,0,0,0,.23-.48.51.51,0,0,0-.17-.41,1.59,1.59,0,0,0-.6-.23l-.43-.12c-.08,0-.12-.08-.12-.14s.12-.16.36-.16.34.08.38.24l.51-.09a.66.66,0,0,0-.28-.4,1.11,1.11,0,0,0-.62-.14,1,1,0,0,0-.65.18.56.56,0,0,0-.21.44.5.5,0,0,0,.25.46,2.86,2.86,0,0,0,.82.27.39.39,0,0,1,.18.07.12.12,0,0,1,0,.1.17.17,0,0,1-.1.16.58.58,0,0,1-.28.06.4.4,0,0,1-.44-.32l-.54.08a.75.75,0,0,0,.32.46m-.67-1.14a1.6,1.6,0,0,0,0-.36.54.54,0,0,0-.1-.23.56.56,0,0,0-.22-.17.88.88,0,0,0-.33-.06.82.82,0,0,0-.67.35V48h-.5v2h.54v-.92a1.7,1.7,0,0,1,0-.47.43.43,0,0,1,.15-.2.46.46,0,0,1,.25-.08.31.31,0,0,1,.19.06.25.25,0,0,1,.11.15,1.74,1.74,0,0,1,0,.42v1h.54Zm-3.66-.22a.46.46,0,0,1,.36-.16.44.44,0,0,1,.35.16.65.65,0,0,1,.14.46.68.68,0,0,1-.14.47.48.48,0,0,1-.35.16.5.5,0,0,1-.36-.16.7.7,0,0,1-.14-.46.71.71,0,0,1,.14-.47m-.56,1a.87.87,0,0,0,.39.37,1.07,1.07,0,0,0,.53.13,1,1,0,0,0,.75-.31,1.11,1.11,0,0,0,0-1.52,1,1,0,0,0-.75-.3,1.27,1.27,0,0,0-.55.13.93.93,0,0,0-.37.39,1,1,0,0,0-.13.51,1.21,1.21,0,0,0,.13.6m-.72-1.47a1,1,0,0,0-.59-.16,1,1,0,0,0-.72.28,1.28,1.28,0,0,0,0,1.57.91.91,0,0,0,.71.28.87.87,0,0,0,.94-.74l-.53-.09a.47.47,0,0,1-.14.3.35.35,0,0,1-.25.09.39.39,0,0,1-.32-.15.83.83,0,0,1-.12-.51.72.72,0,0,1,.12-.47.39.39,0,0,1,.31-.13.34.34,0,0,1,.25.08.39.39,0,0,1,.12.23l.53-.09a.85.85,0,0,0-.31-.49"/><path class="cls-1" d="M203.51,63.71a1.69,1.69,0,0,1,0,.48.6.6,0,0,1-.14.21.82.82,0,0,1-.54.22.49.49,0,0,1-.37-.14.45.45,0,0,1-.14-.33.37.37,0,0,1,.18-.32,1.59,1.59,0,0,1,.5-.16,4.18,4.18,0,0,0,.55-.14Zm-1-1.25a.61.61,0,0,1,.38-.1.82.82,0,0,1,.49.11.46.46,0,0,1,.13.38v.09a6,6,0,0,1-.88.22,3,3,0,0,0-.73.21,1,1,0,0,0-.39.35,1,1,0,0,0-.14.52,1,1,0,0,0,.31.74,1.16,1.16,0,0,0,.83.29,1.55,1.55,0,0,0,1.08-.46s0,.07,0,.16a1.32,1.32,0,0,0,.08.22h.89a2,2,0,0,1-.16-.47,3.57,3.57,0,0,1,0-.66V63a1.92,1.92,0,0,0-.12-.82.89.89,0,0,0-.42-.36,2.16,2.16,0,0,0-.92-.15,1.75,1.75,0,0,0-1,.24,1.37,1.37,0,0,0-.48.74l.83.15a.66.66,0,0,1,.22-.33m-2.11-.53a1.68,1.68,0,0,0-1-.27,1.6,1.6,0,0,0-1.22.48,2.18,2.18,0,0,0,0,2.65,1.57,1.57,0,0,0,1.21.48A1.48,1.48,0,0,0,201,64l-.9-.16a.87.87,0,0,1-.23.51.63.63,0,0,1-.43.15.67.67,0,0,1-.55-.25,1.39,1.39,0,0,1-.21-.87,1.19,1.19,0,0,1,.21-.79.68.68,0,0,1,.54-.23.6.6,0,0,1,.62.54l.9-.16a1.5,1.5,0,0,0-.53-.83m-3.35-.2h-.91v3.46h.91Zm0-1.3h-.91v.84h.91Zm-4.7.8h.76c.38,0,.62,0,.7,0a.63.63,0,0,1,.36.19.56.56,0,0,1,.13.38.69.69,0,0,1-.1.36.6.6,0,0,1-.27.2,3.52,3.52,0,0,1-.86.06h-.72Zm0,4v-2h.2a1.79,1.79,0,0,1,.48,0,.76.76,0,0,1,.29.2,7.82,7.82,0,0,1,.51.7l.69,1h1.15l-.58-.94a7.37,7.37,0,0,0-.54-.77,2.14,2.14,0,0,0-.52-.39,1.52,1.52,0,0,0,.94-.45,1.25,1.25,0,0,0,.32-.88,1.37,1.37,0,0,0-.21-.75,1,1,0,0,0-.55-.45,3.44,3.44,0,0,0-1.12-.13h-2v4.76Zm-3.87-1.48a1.69,1.69,0,0,1,0,.48.6.6,0,0,1-.14.21.82.82,0,0,1-.54.22.49.49,0,0,1-.37-.14.45.45,0,0,1-.14-.33.37.37,0,0,1,.18-.32,1.5,1.5,0,0,1,.49-.16,4.44,4.44,0,0,0,.56-.14Zm-1-1.25a.61.61,0,0,1,.38-.1.82.82,0,0,1,.49.11.46.46,0,0,1,.13.38v.09a6.38,6.38,0,0,1-.88.22,3,3,0,0,0-.73.21,1,1,0,0,0-.39.35,1,1,0,0,0-.14.52,1,1,0,0,0,.3.74,1.21,1.21,0,0,0,.84.29,1.51,1.51,0,0,0,1.07-.46.58.58,0,0,1,0,.16c0,.09.05.17.07.22h.9a2,2,0,0,1-.16-.47,3.57,3.57,0,0,1,0-.66V63a1.92,1.92,0,0,0-.12-.82.92.92,0,0,0-.43-.36,2.11,2.11,0,0,0-.91-.15,1.75,1.75,0,0,0-1,.24,1.27,1.27,0,0,0-.48.74l.82.15a.67.67,0,0,1,.23-.33m-2.16-.73V60.52l-.91.53v.68H184v.74h.42V64a2.69,2.69,0,0,0,.08.84.59.59,0,0,0,.3.34,1,1,0,0,0,.51.12,1.81,1.81,0,0,0,.72-.14l-.08-.71a1.15,1.15,0,0,1-.36.09.25.25,0,0,1-.16-.05.2.2,0,0,1-.08-.12,3.43,3.43,0,0,1,0-.48V62.47H186v-.74ZM181,65a1.9,1.9,0,0,0,1.11.29,1.82,1.82,0,0,0,1.18-.34,1.07,1.07,0,0,0,.39-.82.85.85,0,0,0-.29-.69,2.83,2.83,0,0,0-1-.4,4.92,4.92,0,0,1-.74-.2c-.14,0-.21-.12-.21-.22s.21-.29.62-.29.58.14.65.42l.86-.16a1.16,1.16,0,0,0-.47-.68,2,2,0,0,0-1.05-.23,1.68,1.68,0,0,0-1.1.31.94.94,0,0,0-.36.75.89.89,0,0,0,.42.78,4.92,4.92,0,0,0,1.39.44.61.61,0,0,1,.3.12.23.23,0,0,1,.08.17.3.3,0,0,1-.18.28,1,1,0,0,1-.48.1.66.66,0,0,1-.73-.55l-.92.14A1.27,1.27,0,0,0,181,65m-3.26-2.3a.79.79,0,0,1,1.19,0,1.09,1.09,0,0,1,.25.78,1.12,1.12,0,0,1-.25.79.79.79,0,0,1-1.19,0,1.36,1.36,0,0,1,0-1.57m-1,1.74a1.42,1.42,0,0,0,.65.63,1.94,1.94,0,0,0,.91.22,1.69,1.69,0,0,0,1.27-.52,1.9,1.9,0,0,0,0-2.58,1.75,1.75,0,0,0-1.29-.51,1.9,1.9,0,0,0-.92.23,1.5,1.5,0,0,0-.63.64,1.88,1.88,0,0,0-.22.88,2.07,2.07,0,0,0,.22,1m-2.05-.22a.92.92,0,0,1-.66.25,1.06,1.06,0,0,1-.85-.39,2,2,0,0,1-.32-1.28,1.85,1.85,0,0,1,.33-1.23,1.07,1.07,0,0,1,.86-.38,1,1,0,0,1,1,.8l.95-.24a1.92,1.92,0,0,0-.48-.87,2,2,0,0,0-1.43-.51,2.1,2.1,0,0,0-1.61.65,2.61,2.61,0,0,0-.61,1.85,2.47,2.47,0,0,0,.61,1.77,2.07,2.07,0,0,0,1.56.65,1.88,1.88,0,0,0,2-1.54l-.94-.29a1.37,1.37,0,0,1-.39.76"/><rect class="cls-1" x="88.79" y="46.78" width="0.48" height="18.6"/><rect class="cls-1" x="217.24" y="46.78" width="0.48" height="18.6"/><path class="cls-1" d="M261.05,48.84h1.3l2.88,7.57h-1.52l-.7-1.89h-2.64l-.7,1.89h-1.51Zm1.69,4.65-1-3-1.09,3Z"/><path class="cls-1" d="M265.32,52.57a4.09,4.09,0,0,1,.25-1.37A3.84,3.84,0,0,1,266.3,50a3.71,3.71,0,0,1,1.18-.86,3.58,3.58,0,0,1,1.57-.33,3.41,3.41,0,0,1,1.81.46A2.89,2.89,0,0,1,272,50.45l-1.13.78a1.91,1.91,0,0,0-.37-.54,2.1,2.1,0,0,0-.45-.35,2.47,2.47,0,0,0-.52-.18,2.31,2.31,0,0,0-.52-.06,2,2,0,0,0-1,.22,2.29,2.29,0,0,0-.69.58,2.81,2.81,0,0,0-.41.81,3.23,3.23,0,0,0-.13.91,2.85,2.85,0,0,0,.16,1,2.43,2.43,0,0,0,.45.82,2.25,2.25,0,0,0,.7.56,2,2,0,0,0,.9.21,2.62,2.62,0,0,0,.54-.06,1.93,1.93,0,0,0,.52-.2,1.77,1.77,0,0,0,.81-.89l1.2.7a2.38,2.38,0,0,1-.51.75,3.78,3.78,0,0,1-.76.55,3.89,3.89,0,0,1-.9.34,3.83,3.83,0,0,1-.94.11,3.19,3.19,0,0,1-1.48-.34,3.75,3.75,0,0,1-1.16-.89,4.35,4.35,0,0,1-.76-1.24A3.94,3.94,0,0,1,265.32,52.57Z"/><path class="cls-1" d="M272.56,52.57a4.09,4.09,0,0,1,.25-1.37,3.84,3.84,0,0,1,.73-1.21,3.71,3.71,0,0,1,1.18-.86,3.58,3.58,0,0,1,1.57-.33,3.41,3.41,0,0,1,1.81.46,2.89,2.89,0,0,1,1.14,1.19l-1.13.78a1.91,1.91,0,0,0-.37-.54,2.1,2.1,0,0,0-.45-.35,2.47,2.47,0,0,0-.52-.18,2.31,2.31,0,0,0-.52-.06,2,2,0,0,0-1,.22,2.18,2.18,0,0,0-.69.58,2.81,2.81,0,0,0-.41.81,3.25,3.25,0,0,0-.14.91,3.12,3.12,0,0,0,.16,1,2.63,2.63,0,0,0,.46.82,2.25,2.25,0,0,0,.7.56,2,2,0,0,0,.9.21,2.62,2.62,0,0,0,.54-.06,1.93,1.93,0,0,0,.52-.2,2,2,0,0,0,.47-.36,1.79,1.79,0,0,0,.34-.53l1.2.7a2.38,2.38,0,0,1-.51.75,3.78,3.78,0,0,1-.76.55,3.89,3.89,0,0,1-.9.34,3.83,3.83,0,0,1-.94.11,3.19,3.19,0,0,1-1.48-.34,3.63,3.63,0,0,1-1.16-.89,4.35,4.35,0,0,1-.76-1.24A3.94,3.94,0,0,1,272.56,52.57Z"/><path class="cls-1" d="M280.33,56.41V48.84h1.48v7.57Z"/><path class="cls-1" d="M286.61,56.46a3.36,3.36,0,0,1-1.5-.32,3.9,3.9,0,0,1-1.17-.86,4,4,0,0,1-.75-1.24,3.84,3.84,0,0,1-.27-1.41,3.75,3.75,0,0,1,.29-1.45A4,4,0,0,1,284,50a3.67,3.67,0,0,1,1.17-.85,3.52,3.52,0,0,1,1.49-.31,3.36,3.36,0,0,1,1.49.33,3.91,3.91,0,0,1,1.16.88,4.24,4.24,0,0,1,.75,1.24,4,4,0,0,1,.26,1.41,3.87,3.87,0,0,1-1,2.66,3.8,3.8,0,0,1-1.17.84A3.52,3.52,0,0,1,286.61,56.46Zm-2.19-3.83a3.09,3.09,0,0,0,.15.95,2.62,2.62,0,0,0,.43.81,2.21,2.21,0,0,0,.69.56,2,2,0,0,0,.93.21,2,2,0,0,0,.95-.22,2,2,0,0,0,.69-.58,2.62,2.62,0,0,0,.43-.81,3.21,3.21,0,0,0,.14-.92,3,3,0,0,0-.15-1,2.63,2.63,0,0,0-.44-.81,2.08,2.08,0,0,0-.69-.56,2,2,0,0,0-.93-.21,1.92,1.92,0,0,0-.94.22,2.17,2.17,0,0,0-.7.57,2.83,2.83,0,0,0-.42.81A3.28,3.28,0,0,0,284.42,52.63Zm2.63-4.43-.92-.28.58-1.26H288Z"/><path class="cls-1" d="M292.91,51.56v4.85h-1.47V48.84h1.14l3.95,5v-5H298v7.56h-1.19Z"/><path class="cls-1" d="M266.23,65.32V57.75h3.35a2.13,2.13,0,0,1,1,.22,2.37,2.37,0,0,1,.76.57,2.81,2.81,0,0,1,.5.81,2.52,2.52,0,0,1-.19,2.25,2.09,2.09,0,0,1-1,.87l1.72,2.85H270.7l-1.54-2.54h-1.45v2.54Zm1.48-3.83h1.84a.75.75,0,0,0,.38-.1.83.83,0,0,0,.3-.26,1.2,1.2,0,0,0,.2-.39,1.51,1.51,0,0,0,.08-.48,1.33,1.33,0,0,0-.09-.49,1.09,1.09,0,0,0-.23-.39.9.9,0,0,0-.33-.25.84.84,0,0,0-.37-.09h-1.78Z"/><path class="cls-1" d="M278.87,59h-2.42v6.28H275V59h-2.42V57.75h6.3Z"/><path class="cls-1" d="M285.06,64v1.29h-5.25V57.75H285V59h-3.69v1.82h3.18v1.19h-3.18v2Z"/><path class="cls-1" d="M229.61,64.88l24.8-23.57s-13.21,9.43-21.33,16.93C233.08,58.24,227.91,62.18,229.61,64.88Z"/><path class="cls-1" d="M243.83,59.63a44.17,44.17,0,0,1-17-3.63Z"/><path class="cls-1" d="M255.73,49.74l5.56,9.58A15.94,15.94,0,0,0,255.73,49.74Z"/><path class="cls-1" d="M246.84,51.05s4.17-.46,16.54-4.95C263.38,46.1,259,45.41,246.84,51.05Z"/><path class="cls-1" d="M249.24,55.15l6.56-9.43S246.92,51.9,249.24,55.15Z"/><polygon class="cls-1" points="262.92 62.4 262.86 62.24 262.91 62.4 262.92 62.4"/><polygon class="cls-1" points="260.79 62.4 260.82 62.4 261 61.8 260.79 62.4"/><polygon class="cls-1" points="265.4 65.32 262.52 57.75 261.22 57.75 258.33 65.32 259.85 65.32 260.27 64.17 260.82 62.4 261 61.8 261.03 61.71 261.04 61.71 261.87 59.42 262.83 62.15 262.84 62.15 262.86 62.24 262.92 62.4 262.91 62.4 263.48 64.21 263.89 65.32 265.4 65.32"/><polygon class="cls-1" points="262.84 62.15 262.83 62.15 262.86 62.24 262.84 62.15"/><polygon class="cls-1" points="261.03 61.71 261 61.8 261.04 61.71 261.03 61.71"/><path class="cls-1" d="M267.71,64.73l-23.42-5S265.16,60.86,267.71,64.73Z"/></g></svg>