<?xml version="1.0" encoding="utf-8"?>
<!-- Generator: Adobe Illustrator 24.0.2, SVG Export Plug-In . SVG Version: 6.00 Build 0)  -->
<svg version="1.1" id="Arte" xmlns="http://www.w3.org/2000/svg" xmlns:xlink="http://www.w3.org/1999/xlink" x="0px" y="0px"
	 viewBox="0 0 453.2 405.2" style="enable-background:new 0 0 453.2 405.2;" xml:space="preserve">
<style type="text/css">
	.st0{fill:#0000A6;}
	.st1{fill:#FFFFFF;}
	.st2{fill:#3873FF;}
	.st3{fill:#FF94B2;}
	.st4{fill:#ED4526;}
	.st5{fill:none;stroke:#3873FF;stroke-width:11.1916;stroke-linecap:round;stroke-miterlimit:10;}
</style>
<g id="Pensamiento_1_">
	<path class="st3" d="M328.4,213.7c1.3-4.4,2-9,2-13.8c0-23.7-17.2-43.5-39.9-47.4c-6.2-19.4-24.4-33.5-45.8-33.5
		c-10.1,0-19.4,3.1-27.1,8.4c-7.7-5.3-17-8.4-27.1-8.4c-20.7,0-38.4,13.1-45.2,31.5c-23.8,2.9-42.2,23.2-42.2,47.7
		c0,5.5,0.9,10.8,2.6,15.7c-13.3,8.6-22.1,23.5-22.1,40.5c0,26.6,21.5,48.1,48.1,48.1c10.7,0,20.5-3.5,28.5-9.4
		c8,5.9,17.8,9.4,28.5,9.4s20.5-3.5,28.5-9.4c8,5.9,17.8,9.4,28.5,9.4c2.4,0,4.7-0.2,7-0.5c15.2,0.2,27.4,12.5,27.4,27.7v44.5h20.4
		v-71.7c0.8,0,1.5,0.1,2.3,0.1c26.6,0,48.1-21.5,48.1-48.1C350.9,237.3,341.9,222.2,328.4,213.7z"/>
	<g>
		<polygon class="st0" points="200.5,166.5 212.8,226.1 228.1,226.1 240.4,166.5 		"/>
		<circle class="st0" cx="220.4" cy="250.4" r="15"/>
	</g>
	<rect x="385.1" y="130.1" transform="matrix(0.5 0.866 -0.866 0.5 331.6397 -265.1986)" class="st1" width="20.8" height="49.1"/>
	<rect x="314.2" y="55.5" transform="matrix(0.866 0.5 -0.5 0.866 83.024 -151.727)" class="st1" width="20.8" height="47.1"/>
	<rect x="214.6" y="26.4" class="st1" width="20.8" height="47.9"/>
	<rect x="113.8" y="50.9" transform="matrix(0.866 -0.5 0.5 0.866 -20.6896 72.1327)" class="st1" width="20.8" height="47.5"/>
	<rect x="38.4" y="122.8" transform="matrix(0.5 -0.866 0.866 0.5 -102.0714 115.2594)" class="st1" width="20.8" height="46.4"/>
</g>
</svg>
