<?xml version="1.0" encoding="utf-8"?>
<!-- Generator: Adobe Illustrator 24.0.2, SVG Export Plug-In . SVG Version: 6.00 Build 0)  -->
<svg version="1.1" id="Arte" xmlns="http://www.w3.org/2000/svg" xmlns:xlink="http://www.w3.org/1999/xlink" x="0px" y="0px"
	 viewBox="0 0 210.5 362.8" style="enable-background:new 0 0 210.5 362.8;" xml:space="preserve">
<style type="text/css">
	.st0{fill:#0000A6;}
	.st1{fill:#FFFFFF;}
	.st2{fill:#3873FF;}
	.st3{fill:#FF94B2;}
	.st4{fill:#ED4526;}
	.st5{fill:none;stroke:#3873FF;stroke-width:11.1916;stroke-linecap:round;stroke-miterlimit:10;}
</style>
<g id="Escucha_1_">
	<circle class="st3" cx="100.4" cy="94" r="84.3"/>
	<circle class="st2" cx="142.6" cy="251.6" r="42.2"/>
	<circle class="st3" cx="142.6" cy="251.6" r="42.2"/>
	<polygon class="st3" points="25.2,132 105,270.7 184.7,251.6 184.7,94 	"/>
	<path class="st5" d="M177,274.8c4.5,6.7,7.2,14.8,7.2,23.4c0,23.2-18.8,41.9-41.9,41.9"/>
	<circle class="st3" cx="142.6" cy="251.6" r="42.2"/>
	<path class="st4" d="M99.6,39.4c-31,0.4-56.3,25.7-56.7,56.7c-0.4,32.2,25.5,58.4,57.6,58.4l0.3,0c5.3,0,10.5,2.1,14.3,5.9h0
		c4,4,6.3,9.4,6.3,15.1v2.7c0,5.7-2.3,11.1-6.3,15.1h0c-4,4-6.3,9.4-6.3,15.1v0c0,12.2,9.9,22.1,22.1,22.1h5.2
		c12.2,0,22.1-9.9,22.1-22.1V97C158,64.9,131.8,39,99.6,39.4z"/>
	<path class="st5" d="M142.2,340.2c-23.2,0-41.9-18.8-41.9-41.9s18.8-41.9,41.9-41.9"/>
</g>
</svg>
