<?xml version="1.0" encoding="utf-8"?>
<!-- Generator: Adobe Illustrator 24.0.2, SVG Export Plug-In . SVG Version: 6.00 Build 0)  -->
<svg version="1.1" id="Arte" xmlns="http://www.w3.org/2000/svg" xmlns:xlink="http://www.w3.org/1999/xlink" x="0px" y="0px"
	 viewBox="0 0 932.9 651.4" style="enable-background:new 0 0 932.9 651.4;" xml:space="preserve">
<style type="text/css">
	.st0{fill:#0000A6;}
	.st1{fill:#FFFFFF;}
	.st2{fill:#3873FF;}
	.st3{fill:#FF94B2;}
	.st4{fill:#ED4526;}
	.st5{fill:none;stroke:#3873FF;stroke-width:11.1916;stroke-linecap:round;stroke-miterlimit:10;}
</style>
<g id="Vocabulario_2_">
	<path class="st1" d="M33.4,332.7h298.3v0c0,82.2-66.6,148.8-148.8,148.8h-0.7C100,481.5,33.4,414.9,33.4,332.7L33.4,332.7z"/>
	<g>
		<path class="st2" d="M89.1,404.1v0.5c15.3,1.6,24.7,15.6,24.7,37.2c0,26.3-11.9,40.3-34.4,40.3H61V330.7h15.7
			c22.5,0,33.8,12.9,33.8,38.3C110.5,388.7,102.6,401.4,89.1,404.1z M71.6,341.2v58.2h4.2c17.1,0,24.1-8.4,24.1-29.2
			c0-21.5-6.2-29-23.7-29H71.6z M71.6,409.8v61.6h5.6c19.1,0,26.4-8.4,26.4-30.8c0-21.5-8-30.8-26.4-30.8H71.6z"/>
		<path class="st2" d="M128,482.1V330.7H139v140.5h31v10.9H128z"/>
		<path class="st2" d="M237,482.1h-10.9l-7-47.8h-26.4l-7,47.8h-10.5L199,330.7h14.3L237,482.1z M206.2,347.7h-0.6l-11.3,76.6h23.1
			L206.2,347.7z"/>
		<path class="st2" d="M259.7,410.9v71.2h-11.1V330.7h11.1v69.3h34.4v-69.3h11.1v151.4h-11.1v-71.2H259.7z"/>
	</g>
	<path class="st4" d="M342.8,332.7l-90.4-69c-15.4-11.7-36.9-11-51.5,1.7l-18.3,16l-18.3-16c-14.6-12.7-36.1-13.5-51.5-1.7l-90.4,69
		H124h0c9.9,0,19.6,2.7,28.2,7.8l2.1,1.3c17.4,10.4,39.1,10.4,56.5-0.1l1.7-1c8.6-5.2,18.4-7.9,28.4-7.9h0.3H342.8z"/>
	<path class="st4" d="M331.7,332.7L331.7,332.7c0,82.2-66.6,148.8-148.8,148.8h-0.7c-82.2,0-148.8-66.6-148.8-148.8v0H22.3v59.1
		c0,88.5,71.7,160.2,160.2,160.2h0c88.5,0,160.2-71.7,160.2-160.2v-59.1H331.7z"/>
</g>
<g id="Logo_1_">
	<polygon class="st1" points="293.2,85 292.2,85 279.2,17.7 242.8,17.7 242.8,184.2 273.5,184.2 273.5,109.4 272.8,77.5 273.8,77.5 
		285,140.1 299.9,140.1 310.9,77.5 311.9,77.5 311.4,109.4 311.4,184.2 342.1,184.2 342.1,17.7 306.7,17.7 	"/>
	<path class="st1" d="M441.3,134.3V17.7h-33.4v120.9c0,15-3,19.7-9.7,19.7c-7,0-10-4.7-10-19.7V17.7h-33.4v116.7
		c0,33.7,14.7,51.4,43.4,51.4C426.3,185.7,441.3,168,441.3,134.3z"/>
	<path class="st1" d="M489.9,185.7c12.2,0,22.2-4,29.9-12.2c7.7-8.2,11.7-18.7,11.7-31.7c0-8.5-2-16.7-6-24.7
		c-4-8.2-12-18.5-23.9-31.2c-8.2-8.2-13.5-14.5-15.7-18.5c-2.2-4-3.5-7.7-3.5-11.5c0-8.2,3.7-13.5,10-13.5c7.7,0,11.2,9,10.2,26.7
		l27.9-5.5c1-29.9-13.2-47.6-38.4-47.6c-12.5,0-22.4,4-30.2,12.2c-7.7,8-11.5,18.5-11.5,31.2c0,8,1.7,15.7,5.5,23.2
		c3.7,7.5,11.5,17.2,22.7,28.9c8.7,8.7,14.2,15.5,16.7,20.2c2.7,4.5,4,9,4,13.2c0,9-3.5,13.7-10.2,13.7c-9,0-13.2-11.7-11.5-30.4
		l-28.4,5.7C447,165.3,463.2,185.7,489.9,185.7z"/>
	<polygon class="st1" points="607.6,156.5 573.7,156.5 573.7,113.2 600.9,113.2 600.9,86.2 573.7,86.2 573.7,45.3 607.6,45.3 
		607.6,17.7 540.5,17.7 540.5,184.2 607.6,184.2 	"/>
	<path class="st1" d="M659.7,185.7c30.7,0,45.6-28.2,45.6-84.8s-15.5-84.8-45.6-84.8c-30.7,0-45.9,28.2-45.9,84.8
		S629.1,185.7,659.7,185.7z M650.7,55.6c1.7-7.7,4.7-11.7,9-11.7c4.2,0,7,4,8.7,11.7c1.7,7.7,2.5,22.9,2.5,45.4s-0.7,37.6-2.5,45.4
		c-1.7,7.7-4.5,11.7-8.7,11.7c-4.2,0-7.2-4-9-11.7c-1.7-7.7-2.5-22.9-2.5-45.4S649,63.3,650.7,55.6z"/>
	<path class="st1" d="M752.2,185.7c12.2,0,22.2-4,29.9-12.2c7.7-8.2,11.7-18.7,11.7-31.7c0-8.5-2-16.7-6-24.7
		c-4-8.2-12-18.5-23.9-31.2c-8.2-8.2-13.5-14.5-15.7-18.5c-2.2-4-3.5-7.7-3.5-11.5c0-8.2,3.7-13.5,10-13.5c7.7,0,11.2,9,10.2,26.7
		l27.9-5.5c1-29.9-13.2-47.6-38.4-47.6c-12.5,0-22.4,4-30.2,12.2c-7.7,8-11.5,18.5-11.5,31.2c0,8,1.7,15.7,5.5,23.2
		c3.7,7.5,11.5,17.2,22.7,28.9c8.7,8.7,14.2,15.5,16.7,20.2c2.7,4.5,4,9,4,13.2c0,9-3.5,13.7-10.2,13.7c-9,0-13.2-11.7-11.5-30.4
		l-28.4,5.7C709.3,165.3,725.5,185.7,752.2,185.7z"/>
	<path class="st1" d="M529.6,254.9c0-35.7-15.7-52.9-47.6-52.9h-36.7v166.6H478v-60.3h4C514.1,308.3,529.6,291.1,529.6,254.9z
		 M481,281.4h-3v-52.1h3c11.2,0,15.7,7,15.7,25.7C496.7,273.9,492.2,281.4,481,281.4z"/>
	<path class="st1" d="M547.3,202.1l-23.7,166.6H554l4.2-38.4H579l4.2,38.4h31.7l-23.7-166.6H547.3z M561,305l7-64.8h1l7.2,64.8H561z
		"/>
	<path class="st1" d="M656.3,303.3h3.2c7.2,0,10.5,3.7,12.2,13.5l3,33.9c1,8.2,2.5,14.7,4.5,18h34.2c-2.7-4.7-4.2-10.7-5-18.7
		l-3.7-34.4c-1.2-13.2-8.5-22.4-18.7-25.2v-0.5c15-4.2,24.7-19.2,24.7-39.9c0-31.9-15.7-47.9-46.6-47.9h-40.9v166.6h33.2V303.3z
		 M656.3,229.2h3.2c12.2,0,17,5.5,17,24.4c0,18.7-4.7,24.4-17,24.4h-3.2V229.2z"/>
	<path class="st1" d="M739.5,202.1l-23.7,166.6h30.4l4.2-38.4h20.7l4.2,38.4h31.7l-23.7-166.6H739.5z M753.3,305l7-64.8h1l7.2,64.8
		H753.3z"/>
	<polygon class="st1" points="553.8,553 620.9,553 620.9,525.4 587,525.4 587,482 614.2,482 614.2,455 587,455 587,414.2 
		620.9,414.2 620.9,386.5 553.8,386.5 	"/>
	<polygon class="st1" points="688.2,386.5 674.8,494.7 673.8,494.7 660.8,386.5 626.9,386.5 656.8,553 691.7,553 721.4,386.5 	"/>
	<path class="st1" d="M738.1,386.5L714.4,553h30.4l4.2-38.4h20.7L774,553h31.7L782,386.5H738.1z M751.8,489.4l7-64.8h1l7.2,64.8
		H751.8z"/>
	<path class="st1" d="M899.2,534.3l-3.7-34.4c-1.2-13.2-8.5-22.4-18.7-25.2v-0.5c15-4.2,24.7-19.2,24.7-39.9
		c0-31.9-15.7-47.9-46.6-47.9h-40.9V553h33.2v-65.3h3.2c7.2,0,10.5,3.7,12.2,13.5l3,33.9c1,8.2,2.5,14.7,4.5,18h34.2
		C901.4,548.3,899.9,542.3,899.2,534.3z M850.3,462.5h-3.2v-48.9h3.2c12.2,0,17,5.5,17,24.4C867.2,456.8,862.5,462.5,850.3,462.5z"
		/>
	<polygon class="st1" points="530.9,386.7 497.4,386.7 497.4,584.7 497.4,612.4 497.4,612.6 530.9,612.6 530.9,612.4 564.4,612.4 
		564.4,584.7 530.9,584.7 	"/>
	<polygon class="st1" points="444.9,499.3 398.5,545.8 398.5,545.8 378.9,565.4 378.9,565.4 378.8,565.5 402.5,589.2 402.6,589.1 
		426.3,612.8 445.9,593.2 422.2,569.5 478.5,513.2 478.5,386.5 444.9,386.5 	"/>
</g>
</svg>
